<!--
  - Unitto is a calculator for Android
  - Copyright (c) 2023-2024 Elshan Agaev
  -
  - This program is free software: you can redistribute it and/or modify
  - it under the terms of the GNU General Public License as published by
  - the Free Software Foundation, either version 3 of the License, or
  - (at your option) any later version.
  -
  - This program is distributed in the hope that it will be useful,
  - but WITHOUT ANY WARRANTY; without even the implied warranty of
  - MERCHANTABILITY or FITNESS FOR A PARTICULAR PURPOSE.  See the
  - GNU General Public License for more details.
  -
  - You should have received a copy of the GNU General Public License
  - along with this program.  If not, see <https://www.gnu.org/licenses/>.
  -->

<svg width="194" height="40" viewBox="0 0 194 40" fill="none" xmlns="http://www.w3.org/2000/svg">
<rect width="194" height="40" rx="20" fill="#1D5128"/>
<mask id="mask0_1538_135" style="mask-type:alpha" maskUnits="userSpaceOnUse" x="16" y="8" width="24" height="24">
<rect x="16" y="8" width="24" height="24" fill="#D9D9D9"/>
</mask>
<g mask="url(#mask0_1538_135)">
<path d="M26.275 20C25.8083 20 25.425 19.825 25.125 19.475C24.825 19.125 24.7167 18.7167 24.8 18.25L25.1 16.45C25.2333 15.7333 25.5708 15.1458 26.1125 14.6875C26.6542 14.2292 27.2833 14 28 14C28.7333 14 29.3708 14.2292 29.9125 14.6875C30.4542 15.1458 30.7917 15.7333 30.925 16.45L31.225 18.25C31.3083 18.7167 31.2 19.125 30.9 19.475C30.6 19.825 30.2167 20 29.75 20H26.275ZM26.875 18H29.15L28.95 16.775C28.9167 16.5417 28.8083 16.3542 28.625 16.2125C28.4417 16.0708 28.2333 16 28 16C27.7667 16 27.5625 16.0708 27.3875 16.2125C27.2125 16.3542 27.1083 16.5417 27.075 16.775L26.875 18ZM19.1 20.975C18.7167 20.9917 18.3875 20.9167 18.1125 20.75C17.8375 20.5833 17.6583 20.325 17.575 19.975C17.5417 19.825 17.5333 19.675 17.55 19.525C17.5667 19.375 17.6083 19.2333 17.675 19.1C17.675 19.1167 17.6667 19.0833 17.65 19C17.6167 18.9667 17.5333 18.7667 17.4 18.4C17.3667 18.2 17.3917 18.0083 17.475 17.825C17.5583 17.6417 17.6667 17.4833 17.8 17.35L17.85 17.3C17.8833 16.9833 18.0125 16.7167 18.2375 16.5C18.4625 16.2833 18.7417 16.175 19.075 16.175C19.125 16.175 19.2833 16.2083 19.55 16.275L19.625 16.25C19.7083 16.1667 19.8167 16.1042 19.95 16.0625C20.0833 16.0208 20.225 16 20.375 16C20.5583 16 20.7208 16.0292 20.8625 16.0875C21.0042 16.1458 21.1167 16.2333 21.2 16.35C21.2167 16.35 21.2292 16.3542 21.2375 16.3625C21.2458 16.3708 21.2583 16.375 21.275 16.375C21.5083 16.3917 21.7125 16.4625 21.8875 16.5875C22.0625 16.7125 22.1917 16.8833 22.275 17.1C22.3083 17.2167 22.3208 17.3292 22.3125 17.4375C22.3042 17.5458 22.2833 17.65 22.25 17.75C22.25 17.7667 22.2583 17.8 22.275 17.85C22.3917 17.9667 22.4833 18.0958 22.55 18.2375C22.6167 18.3792 22.65 18.525 22.65 18.675C22.65 18.7417 22.6 18.9167 22.5 19.2C22.4833 19.2333 22.4833 19.2667 22.5 19.3L22.55 19.7C22.55 20.05 22.4042 20.35 22.1125 20.6C21.8208 20.85 21.4667 20.975 21.05 20.975H19.1ZM36 21C35.45 21 34.9792 20.8042 34.5875 20.4125C34.1958 20.0208 34 19.55 34 19C34 18.8 34.0292 18.6125 34.0875 18.4375C34.1458 18.2625 34.225 18.0917 34.325 17.925L33.625 17.3C33.4583 17.1667 33.4292 17 33.5375 16.8C33.6458 16.6 33.8 16.5 34 16.5H36C36.55 16.5 37.0208 16.6958 37.4125 17.0875C37.8042 17.4792 38 17.95 38 18.5V19C38 19.55 37.8042 20.0208 37.4125 20.4125C37.0208 20.8042 36.55 21 36 21ZM16 26V24.425C16 23.6917 16.3708 23.1042 17.1125 22.6625C17.8542 22.2208 18.8167 22 20 22C20.2167 22 20.425 22.0042 20.625 22.0125C20.825 22.0208 21.0167 22.0417 21.2 22.075C20.9667 22.4083 20.7917 22.7667 20.675 23.15C20.5583 23.5333 20.5 23.9417 20.5 24.375V26H16ZM22 26V24.375C22 23.2917 22.5542 22.4167 23.6625 21.75C24.7708 21.0833 26.2167 20.75 28 20.75C29.8 20.75 31.25 21.0833 32.35 21.75C33.45 22.4167 34 23.2917 34 24.375V26H22ZM36 22C37.2 22 38.1667 22.2208 38.9 22.6625C39.6333 23.1042 40 23.6917 40 24.425V26H35.5V24.375C35.5 23.9417 35.4458 23.5333 35.3375 23.15C35.2292 22.7667 35.0667 22.4083 34.85 22.075C35.0333 22.0417 35.2208 22.0208 35.4125 22.0125C35.6042 22.0042 35.8 22 36 22ZM28 22.75C27.05 22.75 26.2 22.875 25.45 23.125C24.7 23.375 24.2583 23.6667 24.125 24H31.9C31.75 23.6667 31.3042 23.375 30.5625 23.125C29.8208 22.875 28.9667 22.75 28 22.75Z" fill="#B7F1BA"/>
</g>
<path d="M52.944 26.128C52.0907 26.128 51.2747 26 50.496 25.744C49.7173 25.4773 49.104 25.136 48.656 24.72L49.248 23.472C49.6747 23.8453 50.2187 24.1547 50.88 24.4C51.5413 24.6453 52.2293 24.768 52.944 24.768C53.5947 24.768 54.1227 24.6933 54.528 24.544C54.9333 24.3947 55.232 24.192 55.424 23.936C55.616 23.6693 55.712 23.3707 55.712 23.04C55.712 22.656 55.584 22.3467 55.328 22.112C55.0827 21.8773 54.7573 21.6907 54.352 21.552C53.9573 21.4027 53.52 21.2747 53.04 21.168C52.56 21.0613 52.0747 20.9387 51.584 20.8C51.104 20.6507 50.6613 20.464 50.256 20.24C49.8613 20.016 49.5413 19.7173 49.296 19.344C49.0507 18.96 48.928 18.4693 48.928 17.872C48.928 17.296 49.0773 16.768 49.376 16.288C49.6853 15.7973 50.1547 15.408 50.784 15.12C51.424 14.8213 52.2347 14.672 53.216 14.672C53.8667 14.672 54.512 14.7573 55.152 14.928C55.792 15.0987 56.3467 15.344 56.816 15.664L56.288 16.944C55.808 16.624 55.3013 16.3947 54.768 16.256C54.2347 16.1067 53.7173 16.032 53.216 16.032C52.5867 16.032 52.0693 16.112 51.664 16.272C51.2587 16.432 50.96 16.6453 50.768 16.912C50.5867 17.1787 50.496 17.4773 50.496 17.808C50.496 18.2027 50.6187 18.5173 50.864 18.752C51.12 18.9867 51.4453 19.1733 51.84 19.312C52.2453 19.4507 52.688 19.5787 53.168 19.696C53.648 19.8027 54.128 19.9253 54.608 20.064C55.0987 20.2027 55.5413 20.384 55.936 20.608C56.3413 20.832 56.6667 21.1307 56.912 21.504C57.1573 21.8773 57.28 22.3573 57.28 22.944C57.28 23.5093 57.1253 24.0373 56.816 24.528C56.5067 25.008 56.0267 25.3973 55.376 25.696C54.736 25.984 53.9253 26.128 52.944 26.128ZM61.8055 26.096C60.9522 26.096 60.2908 25.8667 59.8215 25.408C59.3522 24.9493 59.1175 24.2933 59.1175 23.44V15.664H60.6535V23.376C60.6535 23.8347 60.7655 24.1867 60.9895 24.432C61.2242 24.6773 61.5548 24.8 61.9815 24.8C62.4615 24.8 62.8615 24.6667 63.1815 24.4L63.6615 25.504C63.4268 25.7067 63.1442 25.856 62.8135 25.952C62.4935 26.048 62.1575 26.096 61.8055 26.096ZM57.6775 18.784V17.52H63.0855V18.784H57.6775ZM70.2825 26V24.208L70.2025 23.872V20.816C70.2025 20.1653 70.0105 19.664 69.6265 19.312C69.2532 18.9493 68.6878 18.768 67.9305 18.768C67.4292 18.768 66.9385 18.8533 66.4585 19.024C65.9785 19.184 65.5732 19.4027 65.2425 19.68L64.6025 18.528C65.0398 18.176 65.5625 17.9093 66.1705 17.728C66.7892 17.536 67.4345 17.44 68.1065 17.44C69.2692 17.44 70.1652 17.7227 70.7945 18.288C71.4238 18.8533 71.7385 19.7173 71.7385 20.88V26H70.2825ZM67.4985 26.096C66.8692 26.096 66.3145 25.9893 65.8345 25.776C65.3652 25.5627 65.0025 25.2693 64.7465 24.896C64.4905 24.512 64.3625 24.08 64.3625 23.6C64.3625 23.1413 64.4692 22.7253 64.6825 22.352C64.9065 21.9787 65.2638 21.68 65.7545 21.456C66.2558 21.232 66.9278 21.12 67.7705 21.12H70.4585V22.224H67.8345C67.0665 22.224 66.5492 22.352 66.2825 22.608C66.0158 22.864 65.8825 23.1733 65.8825 23.536C65.8825 23.952 66.0478 24.288 66.3785 24.544C66.7092 24.7893 67.1678 24.912 67.7545 24.912C68.3305 24.912 68.8318 24.784 69.2585 24.528C69.6958 24.272 70.0105 23.8987 70.2025 23.408L70.5065 24.464C70.3038 24.9653 69.9465 25.3653 69.4345 25.664C68.9225 25.952 68.2772 26.096 67.4985 26.096ZM74.081 26V17.52H75.553V19.824L75.409 19.248C75.6437 18.6613 76.0383 18.2133 76.593 17.904C77.1477 17.5947 77.8303 17.44 78.641 17.44V18.928C78.577 18.9173 78.513 18.912 78.449 18.912C78.3957 18.912 78.3423 18.912 78.289 18.912C77.4677 18.912 76.817 19.1573 76.337 19.648C75.857 20.1387 75.617 20.848 75.617 21.776V26H74.081ZM83.2899 26.096C82.4365 26.096 81.7752 25.8667 81.3059 25.408C80.8365 24.9493 80.6019 24.2933 80.6019 23.44V15.664H82.1379V23.376C82.1379 23.8347 82.2499 24.1867 82.4739 24.432C82.7085 24.6773 83.0392 24.8 83.4659 24.8C83.9459 24.8 84.3459 24.6667 84.6659 24.4L85.1459 25.504C84.9112 25.7067 84.6285 25.856 84.2979 25.952C83.9779 26.048 83.6419 26.096 83.2899 26.096ZM79.1619 18.784V17.52H84.5699V18.784H79.1619ZM93.8038 26.096C92.9824 26.096 92.2464 25.9147 91.5958 25.552C90.9558 25.1893 90.4491 24.6827 90.0758 24.032C89.7024 23.3813 89.5158 22.624 89.5158 21.76C89.5158 20.896 89.7024 20.144 90.0758 19.504C90.4491 18.8533 90.9558 18.3467 91.5958 17.984C92.2464 17.6213 92.9824 17.44 93.8038 17.44C94.5184 17.44 95.1638 17.6 95.7398 17.92C96.3158 18.24 96.7744 18.72 97.1158 19.36C97.4678 20 97.6438 20.8 97.6438 21.76C97.6438 22.72 97.4731 23.52 97.1318 24.16C96.8011 24.8 96.3478 25.2853 95.7718 25.616C95.1958 25.936 94.5398 26.096 93.8038 26.096ZM93.9318 24.752C94.4651 24.752 94.9451 24.6293 95.3718 24.384C95.8091 24.1387 96.1504 23.792 96.3958 23.344C96.6518 22.8853 96.7798 22.3573 96.7798 21.76C96.7798 21.152 96.6518 20.6293 96.3958 20.192C96.1504 19.744 95.8091 19.3973 95.3718 19.152C94.9451 18.9067 94.4651 18.784 93.9318 18.784C93.3878 18.784 92.9024 18.9067 92.4758 19.152C92.0491 19.3973 91.7078 19.744 91.4518 20.192C91.1958 20.6293 91.0678 21.152 91.0678 21.76C91.0678 22.3573 91.1958 22.8853 91.4518 23.344C91.7078 23.792 92.0491 24.1387 92.4758 24.384C92.9024 24.6293 93.3878 24.752 93.9318 24.752ZM96.8278 26V23.712L96.9237 21.744L96.7638 19.776V14.128H98.2998V26H96.8278ZM100.706 26V17.52H102.242V26H100.706ZM101.474 15.888C101.175 15.888 100.925 15.792 100.722 15.6C100.53 15.408 100.434 15.1733 100.434 14.896C100.434 14.608 100.53 14.368 100.722 14.176C100.925 13.984 101.175 13.888 101.474 13.888C101.773 13.888 102.018 13.984 102.21 14.176C102.413 14.3573 102.514 14.5867 102.514 14.864C102.514 15.152 102.418 15.3973 102.226 15.6C102.034 15.792 101.783 15.888 101.474 15.888ZM107.107 26.096C106.403 26.096 105.731 26 105.091 25.808C104.461 25.616 103.965 25.3813 103.603 25.104L104.243 23.888C104.605 24.1333 105.053 24.3413 105.587 24.512C106.12 24.6827 106.664 24.768 107.219 24.768C107.933 24.768 108.445 24.6667 108.755 24.464C109.075 24.2613 109.235 23.9787 109.235 23.616C109.235 23.3493 109.139 23.1413 108.947 22.992C108.755 22.8427 108.499 22.7307 108.179 22.656C107.869 22.5813 107.523 22.5173 107.139 22.464C106.755 22.4 106.371 22.3253 105.987 22.24C105.603 22.144 105.251 22.016 104.931 21.856C104.611 21.6853 104.355 21.456 104.163 21.168C103.971 20.8693 103.875 20.4747 103.875 19.984C103.875 19.472 104.019 19.024 104.307 18.64C104.595 18.256 105 17.9627 105.523 17.76C106.056 17.5467 106.685 17.44 107.411 17.44C107.965 17.44 108.525 17.5093 109.091 17.648C109.667 17.776 110.136 17.9627 110.499 18.208L109.843 19.424C109.459 19.168 109.059 18.992 108.643 18.896C108.227 18.8 107.811 18.752 107.395 18.752C106.723 18.752 106.221 18.864 105.891 19.088C105.56 19.3013 105.395 19.5787 105.395 19.92C105.395 20.208 105.491 20.432 105.683 20.592C105.885 20.7413 106.141 20.8587 106.451 20.944C106.771 21.0293 107.123 21.104 107.507 21.168C107.891 21.2213 108.275 21.296 108.659 21.392C109.043 21.4773 109.389 21.6 109.699 21.76C110.019 21.92 110.275 22.144 110.467 22.432C110.669 22.72 110.771 23.104 110.771 23.584C110.771 24.096 110.621 24.5387 110.323 24.912C110.024 25.2853 109.603 25.5787 109.059 25.792C108.515 25.9947 107.864 26.096 107.107 26.096ZM115.886 26.096C115.022 26.096 114.249 25.9093 113.566 25.536C112.894 25.1627 112.366 24.6507 111.982 24C111.598 23.3493 111.406 22.6027 111.406 21.76C111.406 20.9173 111.598 20.1707 111.982 19.52C112.366 18.8693 112.894 18.3627 113.566 18C114.249 17.6267 115.022 17.44 115.886 17.44C116.654 17.44 117.337 17.5947 117.934 17.904C118.542 18.2027 119.012 18.6507 119.342 19.248L118.174 20C117.897 19.584 117.556 19.28 117.15 19.088C116.756 18.8853 116.329 18.784 115.87 18.784C115.316 18.784 114.82 18.9067 114.382 19.152C113.945 19.3973 113.598 19.744 113.342 20.192C113.086 20.6293 112.958 21.152 112.958 21.76C112.958 22.368 113.086 22.896 113.342 23.344C113.598 23.792 113.945 24.1387 114.382 24.384C114.82 24.6293 115.316 24.752 115.87 24.752C116.329 24.752 116.756 24.656 117.15 24.464C117.556 24.2613 117.897 23.952 118.174 23.536L119.342 24.272C119.012 24.8587 118.542 25.312 117.934 25.632C117.337 25.9413 116.654 26.096 115.886 26.096ZM124.399 26.096C123.674 26.096 123.034 25.9627 122.479 25.696C121.935 25.4293 121.508 25.024 121.199 24.48C120.9 23.9253 120.751 23.232 120.751 22.4V17.52H122.287V22.224C122.287 23.056 122.484 23.68 122.879 24.096C123.284 24.512 123.85 24.72 124.575 24.72C125.108 24.72 125.572 24.6133 125.967 24.4C126.362 24.176 126.666 23.856 126.879 23.44C127.092 23.0133 127.199 22.5013 127.199 21.904V17.52H128.735V26H127.279V23.712L127.519 24.32C127.242 24.8853 126.826 25.3227 126.271 25.632C125.716 25.9413 125.092 26.096 124.399 26.096ZM133.591 26.096C132.887 26.096 132.215 26 131.575 25.808C130.946 25.616 130.45 25.3813 130.087 25.104L130.727 23.888C131.09 24.1333 131.538 24.3413 132.071 24.512C132.604 24.6827 133.148 24.768 133.703 24.768C134.418 24.768 134.93 24.6667 135.239 24.464C135.559 24.2613 135.719 23.9787 135.719 23.616C135.719 23.3493 135.623 23.1413 135.431 22.992C135.239 22.8427 134.983 22.7307 134.663 22.656C134.354 22.5813 134.007 22.5173 133.623 22.464C133.239 22.4 132.855 22.3253 132.471 22.24C132.087 22.144 131.735 22.016 131.415 21.856C131.095 21.6853 130.839 21.456 130.647 21.168C130.455 20.8693 130.359 20.4747 130.359 19.984C130.359 19.472 130.503 19.024 130.791 18.64C131.079 18.256 131.484 17.9627 132.007 17.76C132.54 17.5467 133.17 17.44 133.895 17.44C134.45 17.44 135.01 17.5093 135.575 17.648C136.151 17.776 136.62 17.9627 136.983 18.208L136.327 19.424C135.943 19.168 135.543 18.992 135.127 18.896C134.711 18.8 134.295 18.752 133.879 18.752C133.207 18.752 132.706 18.864 132.375 19.088C132.044 19.3013 131.879 19.5787 131.879 19.92C131.879 20.208 131.975 20.432 132.167 20.592C132.37 20.7413 132.626 20.8587 132.935 20.944C133.255 21.0293 133.607 21.104 133.991 21.168C134.375 21.2213 134.759 21.296 135.143 21.392C135.527 21.4773 135.874 21.6 136.183 21.76C136.503 21.92 136.759 22.144 136.951 22.432C137.154 22.72 137.255 23.104 137.255 23.584C137.255 24.096 137.106 24.5387 136.807 24.912C136.508 25.2853 136.087 25.5787 135.543 25.792C134.999 25.9947 134.348 26.096 133.591 26.096ZM141.107 26.096C140.403 26.096 139.731 26 139.091 25.808C138.461 25.616 137.965 25.3813 137.603 25.104L138.243 23.888C138.605 24.1333 139.053 24.3413 139.587 24.512C140.12 24.6827 140.664 24.768 141.219 24.768C141.933 24.768 142.445 24.6667 142.755 24.464C143.075 24.2613 143.235 23.9787 143.235 23.616C143.235 23.3493 143.139 23.1413 142.947 22.992C142.755 22.8427 142.499 22.7307 142.179 22.656C141.869 22.5813 141.523 22.5173 141.139 22.464C140.755 22.4 140.371 22.3253 139.987 22.24C139.603 22.144 139.251 22.016 138.931 21.856C138.611 21.6853 138.355 21.456 138.163 21.168C137.971 20.8693 137.875 20.4747 137.875 19.984C137.875 19.472 138.019 19.024 138.307 18.64C138.595 18.256 139 17.9627 139.523 17.76C140.056 17.5467 140.685 17.44 141.411 17.44C141.965 17.44 142.525 17.5093 143.091 17.648C143.667 17.776 144.136 17.9627 144.499 18.208L143.843 19.424C143.459 19.168 143.059 18.992 142.643 18.896C142.227 18.8 141.811 18.752 141.395 18.752C140.723 18.752 140.221 18.864 139.891 19.088C139.56 19.3013 139.395 19.5787 139.395 19.92C139.395 20.208 139.491 20.432 139.683 20.592C139.885 20.7413 140.141 20.8587 140.451 20.944C140.771 21.0293 141.123 21.104 141.507 21.168C141.891 21.2213 142.275 21.296 142.659 21.392C143.043 21.4773 143.389 21.6 143.699 21.76C144.019 21.92 144.275 22.144 144.467 22.432C144.669 22.72 144.771 23.104 144.771 23.584C144.771 24.096 144.621 24.5387 144.323 24.912C144.024 25.2853 143.603 25.5787 143.059 25.792C142.515 25.9947 141.864 26.096 141.107 26.096ZM146.19 26V17.52H147.726V26H146.19ZM146.958 15.888C146.66 15.888 146.409 15.792 146.206 15.6C146.014 15.408 145.918 15.1733 145.918 14.896C145.918 14.608 146.014 14.368 146.206 14.176C146.409 13.984 146.66 13.888 146.958 13.888C147.257 13.888 147.502 13.984 147.694 14.176C147.897 14.3573 147.998 14.5867 147.998 14.864C147.998 15.152 147.902 15.3973 147.71 15.6C147.518 15.792 147.268 15.888 146.958 15.888ZM153.791 26.096C152.938 26.096 152.18 25.9093 151.519 25.536C150.858 25.1627 150.335 24.6507 149.951 24C149.567 23.3387 149.375 22.592 149.375 21.76C149.375 20.9173 149.567 20.1707 149.951 19.52C150.335 18.8693 150.858 18.3627 151.519 18C152.18 17.6267 152.938 17.44 153.791 17.44C154.634 17.44 155.386 17.6267 156.047 18C156.719 18.3627 157.242 18.8693 157.615 19.52C157.999 20.16 158.191 20.9067 158.191 21.76C158.191 22.6027 157.999 23.3493 157.615 24C157.242 24.6507 156.719 25.1627 156.047 25.536C155.386 25.9093 154.634 26.096 153.791 26.096ZM153.791 24.752C154.335 24.752 154.82 24.6293 155.247 24.384C155.684 24.1387 156.026 23.792 156.271 23.344C156.516 22.8853 156.639 22.3573 156.639 21.76C156.639 21.152 156.516 20.6293 156.271 20.192C156.026 19.744 155.684 19.3973 155.247 19.152C154.82 18.9067 154.335 18.784 153.791 18.784C153.247 18.784 152.762 18.9067 152.335 19.152C151.908 19.3973 151.567 19.744 151.311 20.192C151.055 20.6293 150.927 21.152 150.927 21.76C150.927 22.3573 151.055 22.8853 151.311 23.344C151.567 23.792 151.908 24.1387 152.335 24.384C152.762 24.6293 153.247 24.752 153.791 24.752ZM164.343 17.44C165.037 17.44 165.645 17.5733 166.167 17.84C166.701 18.1067 167.117 18.512 167.415 19.056C167.714 19.6 167.863 20.288 167.863 21.12V26H166.327V21.296C166.327 20.4747 166.125 19.856 165.719 19.44C165.325 19.024 164.765 18.816 164.039 18.816C163.495 18.816 163.021 18.9227 162.615 19.136C162.21 19.3493 161.895 19.664 161.671 20.08C161.458 20.496 161.351 21.0133 161.351 21.632V26H159.815V17.52H161.287V19.808L161.047 19.2C161.325 18.6453 161.751 18.2133 162.327 17.904C162.903 17.5947 163.575 17.44 164.343 17.44Z" fill="#B7F1BA"/>
</svg>
