<svg width="99" height="40" viewBox="0 0 99 40" fill="none" xmlns="http://www.w3.org/2000/svg">
<rect width="99" height="40" rx="9" fill="#00531D"/>
<path fill-rule="evenodd" clip-rule="evenodd" d="M15.9924 9.17028C15.7654 8.94324 15.3973 8.94324 15.1703 9.17028C14.9432 9.39731 14.9432 9.76541 15.1703 9.99244L17.2073 12.0295C17.1283 12.2155 17.0846 12.4201 17.0846 12.6349V15.7355C17.0846 16.5917 17.7787 17.2857 18.6349 17.2857H33.3626C34.2188 17.2857 34.9128 16.5917 34.9128 15.7355V12.6349C34.9128 12.4208 34.8694 12.2168 34.7909 12.0312L36.8297 9.99244C37.0568 9.76541 37.0568 9.39732 36.8297 9.17028C36.6027 8.94325 36.2346 8.94325 36.0076 9.17028L33.9698 11.2081C33.7833 11.1286 33.5781 11.0846 33.3626 11.0846H18.6349C18.4201 11.0846 18.2155 11.1283 18.0295 11.2073L15.9924 9.17028ZM22.8982 14.1852C22.8982 15.0414 22.2041 15.7355 21.3479 15.7355C20.4917 15.7355 19.7976 15.0414 19.7976 14.1852C19.7976 13.329 20.4917 12.6349 21.3479 12.6349C22.2041 12.6349 22.8982 13.329 22.8982 14.1852ZM32.1999 14.1852C32.1999 15.0414 31.5058 15.7355 30.6496 15.7355C29.7934 15.7355 29.0993 15.0414 29.0993 14.1852C29.0993 13.329 29.7934 12.6349 30.6496 12.6349C31.5058 12.6349 32.1999 13.329 32.1999 14.1852Z" fill="#A3F6AB"/>
<path fill-rule="evenodd" clip-rule="evenodd" d="M29.8757 24.262C29.8757 26.4025 28.1405 28.1377 26 28.1377C23.8595 28.1377 22.1243 26.4025 22.1243 24.262C22.1243 22.1215 23.8595 20.3863 26 20.3863C28.1405 20.3863 29.8757 22.1215 29.8757 24.262ZM26 26.975C27.4983 26.975 28.713 25.7603 28.713 24.262C28.713 22.7636 27.4983 21.549 26 21.549C24.771 21.549 23.7329 22.3662 23.3994 23.4869H24.6571C24.9252 23.0235 25.4262 22.7117 26 22.7117C26.8562 22.7117 27.5503 23.4058 27.5503 24.262C27.5503 25.1182 26.8562 25.8123 26 25.8123C25.4262 25.8123 24.9252 25.5005 24.6571 25.0371H23.3994C23.7329 26.1578 24.771 26.975 26 26.975Z" fill="#A3F6AB"/>
<path fill-rule="evenodd" clip-rule="evenodd" d="M17.0846 28.9128V19.6112C17.0846 18.755 17.7787 18.0609 18.6349 18.0609H33.3626C34.2188 18.0609 34.9128 18.755 34.9128 19.6112V28.9128C34.9128 29.769 34.2188 30.4631 33.3626 30.4631H18.6349C17.7787 30.4631 17.0846 29.769 17.0846 28.9128ZM30.6508 24.262C30.6508 26.8306 28.5686 28.9128 26 28.9128C23.4314 28.9128 21.3492 26.8306 21.3492 24.262C21.3492 21.6934 23.4314 19.6112 26 19.6112C28.5686 19.6112 30.6508 21.6934 30.6508 24.262Z" fill="#A3F6AB"/>
<path d="M49.95 20.31H53.56V21.17H49.95V20.31ZM50.05 24H49.05V17H53.99V17.87H50.05V24ZM55.2177 21.67V20.84H57.9077V21.67H55.2177ZM59.8258 24V17H62.7758C63.5224 17 64.1791 17.1467 64.7458 17.44C65.3191 17.7333 65.7624 18.1433 66.0758 18.67C66.3958 19.1967 66.5558 19.8067 66.5558 20.5C66.5558 21.1933 66.3958 21.8033 66.0758 22.33C65.7624 22.8567 65.3191 23.2667 64.7458 23.56C64.1791 23.8533 63.5224 24 62.7758 24H59.8258ZM60.8258 23.13H62.7158C63.2958 23.13 63.7958 23.02 64.2158 22.8C64.6424 22.58 64.9724 22.2733 65.2058 21.88C65.4391 21.48 65.5558 21.02 65.5558 20.5C65.5558 19.9733 65.4391 19.5133 65.2058 19.12C64.9724 18.7267 64.6424 18.42 64.2158 18.2C63.7958 17.98 63.2958 17.87 62.7158 17.87H60.8258V23.13ZM68.2475 24V18.7H69.1675V20.14L69.0775 19.78C69.2242 19.4133 69.4708 19.1333 69.8175 18.94C70.1642 18.7467 70.5908 18.65 71.0975 18.65V19.58C71.0575 19.5733 71.0175 19.57 70.9775 19.57C70.9442 19.57 70.9108 19.57 70.8775 19.57C70.3642 19.57 69.9575 19.7233 69.6575 20.03C69.3575 20.3367 69.2075 20.78 69.2075 21.36V24H68.2475ZM74.8019 24.06C74.2685 24.06 73.7952 23.9433 73.3819 23.71C72.9685 23.4767 72.6419 23.1567 72.4019 22.75C72.1619 22.3367 72.0419 21.87 72.0419 21.35C72.0419 20.8233 72.1619 20.3567 72.4019 19.95C72.6419 19.5433 72.9685 19.2267 73.3819 19C73.7952 18.7667 74.2685 18.65 74.8019 18.65C75.3285 18.65 75.7985 18.7667 76.2119 19C76.6319 19.2267 76.9585 19.5433 77.1919 19.95C77.4319 20.35 77.5519 20.8167 77.5519 21.35C77.5519 21.8767 77.4319 22.3433 77.1919 22.75C76.9585 23.1567 76.6319 23.4767 76.2119 23.71C75.7985 23.9433 75.3285 24.06 74.8019 24.06ZM74.8019 23.22C75.1419 23.22 75.4452 23.1433 75.7119 22.99C75.9852 22.8367 76.1985 22.62 76.3519 22.34C76.5052 22.0533 76.5819 21.7233 76.5819 21.35C76.5819 20.97 76.5052 20.6433 76.3519 20.37C76.1985 20.09 75.9852 19.8733 75.7119 19.72C75.4452 19.5667 75.1419 19.49 74.8019 19.49C74.4619 19.49 74.1585 19.5667 73.8919 19.72C73.6252 19.8733 73.4119 20.09 73.2519 20.37C73.0919 20.6433 73.0119 20.97 73.0119 21.35C73.0119 21.7233 73.0919 22.0533 73.2519 22.34C73.4119 22.62 73.6252 22.8367 73.8919 22.99C74.1585 23.1433 74.4619 23.22 74.8019 23.22ZM79.1795 24V18.7H80.1395V24H79.1795ZM79.6595 17.68C79.4729 17.68 79.3162 17.62 79.1895 17.5C79.0695 17.38 79.0095 17.2333 79.0095 17.06C79.0095 16.88 79.0695 16.73 79.1895 16.61C79.3162 16.49 79.4729 16.43 79.6595 16.43C79.8462 16.43 79.9995 16.49 80.1195 16.61C80.2462 16.7233 80.3095 16.8667 80.3095 17.04C80.3095 17.22 80.2495 17.3733 80.1295 17.5C80.0095 17.62 79.8529 17.68 79.6595 17.68ZM84.4625 24.06C83.9492 24.06 83.4892 23.9467 83.0825 23.72C82.6825 23.4933 82.3658 23.1767 82.1325 22.77C81.8992 22.3633 81.7825 21.89 81.7825 21.35C81.7825 20.81 81.8992 20.34 82.1325 19.94C82.3658 19.5333 82.6825 19.2167 83.0825 18.99C83.4892 18.7633 83.9492 18.65 84.4625 18.65C84.9092 18.65 85.3125 18.75 85.6725 18.95C86.0325 19.15 86.3192 19.45 86.5325 19.85C86.7525 20.25 86.8625 20.75 86.8625 21.35C86.8625 21.95 86.7558 22.45 86.5425 22.85C86.3358 23.25 86.0525 23.5533 85.6925 23.76C85.3325 23.96 84.9225 24.06 84.4625 24.06ZM84.5425 23.22C84.8758 23.22 85.1758 23.1433 85.4425 22.99C85.7158 22.8367 85.9292 22.62 86.0825 22.34C86.2425 22.0533 86.3225 21.7233 86.3225 21.35C86.3225 20.97 86.2425 20.6433 86.0825 20.37C85.9292 20.09 85.7158 19.8733 85.4425 19.72C85.1758 19.5667 84.8758 19.49 84.5425 19.49C84.2025 19.49 83.8992 19.5667 83.6325 19.72C83.3658 19.8733 83.1525 20.09 82.9925 20.37C82.8325 20.6433 82.7525 20.97 82.7525 21.35C82.7525 21.7233 82.8325 22.0533 82.9925 22.34C83.1525 22.62 83.3658 22.8367 83.6325 22.99C83.8992 23.1433 84.2025 23.22 84.5425 23.22ZM86.3525 24V22.57L86.4125 21.34L86.3125 20.11V16.58H87.2725V24H86.3525Z" fill="#A3F6AB"/>
</svg>
