<svg width="96" height="40" viewBox="0 0 96 40" fill="none" xmlns="http://www.w3.org/2000/svg">
<rect width="96" height="40" rx="9" fill="#00531D"/>
<g clip-path="url(#clip0_502_2254)">
<path fill-rule="evenodd" clip-rule="evenodd" d="M25.9672 9C19.9026 9 15 14.0417 15 20.2789C15 25.2646 18.1413 29.485 22.4991 30.9787C23.0439 31.091 23.2435 30.736 23.2435 30.4374C23.2435 30.1759 23.2255 29.2796 23.2255 28.3458C20.1747 29.0182 19.5394 27.0013 19.5394 27.0013C19.0491 25.6941 18.3227 25.3581 18.3227 25.3581C17.3241 24.6672 18.3954 24.6672 18.3954 24.6672C19.503 24.7419 20.0842 25.825 20.0842 25.825C21.0646 27.5428 22.6443 27.0574 23.2799 26.7586C23.3706 26.0303 23.6613 25.5261 23.9699 25.2461C21.5367 24.9846 18.9766 24.0136 18.9766 19.6812C18.9766 18.4488 19.4121 17.4404 20.1022 16.6562C19.9933 16.3762 19.6119 15.2182 20.2113 13.6684C20.2113 13.6684 21.1373 13.3695 23.2253 14.8261C24.1192 14.5792 25.0411 14.4536 25.9672 14.4526C26.8932 14.4526 27.8372 14.5834 28.7089 14.8261C30.7971 13.3695 31.7231 13.6684 31.7231 13.6684C32.3225 15.2182 31.9409 16.3762 31.832 16.6562C32.5403 17.4404 32.9578 18.4488 32.9578 19.6812C32.9578 24.0136 30.3978 24.9658 27.9463 25.2461C28.3459 25.6008 28.6907 26.273 28.6907 27.3375C28.6907 28.85 28.6728 30.0639 28.6728 30.4372C28.6728 30.736 28.8726 31.091 29.4172 30.9789C33.775 29.4847 36.9163 25.2646 36.9163 20.2789C36.9342 14.0417 32.0136 9 25.9672 9Z" fill="#A3F6AB"/>
</g>
<path d="M52.21 24.08C51.67 24.08 51.1733 23.9933 50.72 23.82C50.2667 23.64 49.8733 23.39 49.54 23.07C49.2067 22.7433 48.9467 22.3633 48.76 21.93C48.5733 21.4967 48.48 21.02 48.48 20.5C48.48 19.98 48.5733 19.5033 48.76 19.07C48.9467 18.6367 49.2067 18.26 49.54 17.94C49.88 17.6133 50.2767 17.3633 50.73 17.19C51.1833 17.01 51.6833 16.92 52.23 16.92C52.7833 16.92 53.29 17.01 53.75 17.19C54.21 17.37 54.6 17.64 54.92 18L54.3 18.62C54.0133 18.34 53.7 18.1367 53.36 18.01C53.0267 17.8767 52.6633 17.81 52.27 17.81C51.87 17.81 51.4967 17.8767 51.15 18.01C50.81 18.1433 50.5133 18.33 50.26 18.57C50.0133 18.81 49.82 19.0967 49.68 19.43C49.5467 19.7567 49.48 20.1133 49.48 20.5C49.48 20.88 49.5467 21.2367 49.68 21.57C49.82 21.8967 50.0133 22.1833 50.26 22.43C50.5133 22.67 50.81 22.8567 51.15 22.99C51.49 23.1233 51.86 23.19 52.26 23.19C52.6333 23.19 52.99 23.1333 53.33 23.02C53.6767 22.9 53.9967 22.7033 54.29 22.43L54.86 23.19C54.5133 23.4833 54.1067 23.7067 53.64 23.86C53.18 24.0067 52.7033 24.08 52.21 24.08ZM53.9 23.06V20.46H54.86V23.19L53.9 23.06ZM56.9346 24V18.7H57.8946V24H56.9346ZM57.4146 17.68C57.2279 17.68 57.0713 17.62 56.9446 17.5C56.8246 17.38 56.7646 17.2333 56.7646 17.06C56.7646 16.88 56.8246 16.73 56.9446 16.61C57.0713 16.49 57.2279 16.43 57.4146 16.43C57.6013 16.43 57.7546 16.49 57.8746 16.61C58.0013 16.7233 58.0646 16.8667 58.0646 17.04C58.0646 17.22 58.0046 17.3733 57.8846 17.5C57.7646 17.62 57.6079 17.68 57.4146 17.68ZM61.8476 24.06C61.3142 24.06 60.9009 23.9167 60.6076 23.63C60.3142 23.3433 60.1676 22.9333 60.1676 22.4V17.54H61.1276V22.36C61.1276 22.6467 61.1976 22.8667 61.3376 23.02C61.4842 23.1733 61.6909 23.25 61.9576 23.25C62.2576 23.25 62.5076 23.1667 62.7076 23L63.0076 23.69C62.8609 23.8167 62.6842 23.91 62.4776 23.97C62.2776 24.03 62.0676 24.06 61.8476 24.06ZM59.2676 19.49V18.7H62.6476V19.49H59.2676ZM69.6282 17H70.6282V24H69.6282V17ZM65.6082 24H64.6082V17H65.6082V24ZM69.7182 20.88H65.5082V20.01H69.7182V20.88ZM75.1134 24.06C74.6601 24.06 74.2601 23.9767 73.9134 23.81C73.5734 23.6433 73.3068 23.39 73.1134 23.05C72.9268 22.7033 72.8334 22.27 72.8334 21.75V18.7H73.7934V21.64C73.7934 22.16 73.9168 22.55 74.1634 22.81C74.4168 23.07 74.7701 23.2 75.2234 23.2C75.5568 23.2 75.8468 23.1333 76.0934 23C76.3401 22.86 76.5301 22.66 76.6634 22.4C76.7968 22.1333 76.8634 21.8133 76.8634 21.44V18.7H77.8234V24H76.9134V22.57L77.0634 22.95C76.8901 23.3033 76.6301 23.5767 76.2834 23.77C75.9368 23.9633 75.5468 24.06 75.1134 24.06ZM82.761 24.06C82.3077 24.06 81.8977 23.96 81.531 23.76C81.171 23.5533 80.8843 23.25 80.671 22.85C80.4643 22.45 80.361 21.95 80.361 21.35C80.361 20.75 80.4677 20.25 80.681 19.85C80.901 19.45 81.191 19.15 81.551 18.95C81.9177 18.75 82.321 18.65 82.761 18.65C83.281 18.65 83.741 18.7633 84.141 18.99C84.541 19.2167 84.8577 19.5333 85.091 19.94C85.3243 20.34 85.441 20.81 85.441 21.35C85.441 21.89 85.3243 22.3633 85.091 22.77C84.8577 23.1767 84.541 23.4933 84.141 23.72C83.741 23.9467 83.281 24.06 82.761 24.06ZM79.951 24V16.58H80.911V20.11L80.811 21.34L80.871 22.57V24H79.951ZM82.681 23.22C83.021 23.22 83.3243 23.1433 83.591 22.99C83.8643 22.8367 84.0777 22.62 84.231 22.34C84.391 22.0533 84.471 21.7233 84.471 21.35C84.471 20.97 84.391 20.6433 84.231 20.37C84.0777 20.09 83.8643 19.8733 83.591 19.72C83.3243 19.5667 83.021 19.49 82.681 19.49C82.3477 19.49 82.0443 19.5667 81.771 19.72C81.5043 19.8733 81.291 20.09 81.131 20.37C80.9777 20.6433 80.901 20.97 80.901 21.35C80.901 21.7233 80.9777 22.0533 81.131 22.34C81.291 22.62 81.5043 22.8367 81.771 22.99C82.0443 23.1433 82.3477 23.22 82.681 23.22Z" fill="#A3F6AB"/>
<defs>
<clipPath id="clip0_502_2254">
<rect width="22" height="22" fill="white" transform="translate(15 9)"/>
</clipPath>
</defs>
</svg>
