<svg width="122" height="40" viewBox="0 0 122 40" fill="none" xmlns="http://www.w3.org/2000/svg">
<rect width="122" height="40" rx="9" fill="#00531D"/>
<path fill-rule="evenodd" clip-rule="evenodd" d="M16.127 9.7786C16.0449 9.99327 16 10.2489 16 10.5414V29.4581C16 29.7512 16.0449 30.0069 16.1272 30.2216L26.3478 19.9994L16.127 9.7786ZM16.8254 30.9376C17.1962 31.0648 17.6651 31.0012 18.1734 30.7129L30.2173 23.8689L27.0549 20.7065L16.8254 30.9376ZM31.1197 23.3571L34.8534 21.2357C36.0483 20.5557 36.0483 19.4446 34.8534 18.7655L31.118 16.6429L27.762 19.9994L31.1197 23.3571ZM30.2162 16.1305L18.1734 9.28746C17.665 8.99857 17.1962 8.93513 16.8253 9.06262L27.0549 19.2923L30.2162 16.1305Z" fill="#A3F6AB"/>
<path d="M52.21 24.08C51.67 24.08 51.1733 23.9933 50.72 23.82C50.2667 23.64 49.8733 23.39 49.54 23.07C49.2067 22.7433 48.9467 22.3633 48.76 21.93C48.5733 21.4967 48.48 21.02 48.48 20.5C48.48 19.98 48.5733 19.5033 48.76 19.07C48.9467 18.6367 49.2067 18.26 49.54 17.94C49.88 17.6133 50.2767 17.3633 50.73 17.19C51.1833 17.01 51.6833 16.92 52.23 16.92C52.7833 16.92 53.29 17.01 53.75 17.19C54.21 17.37 54.6 17.64 54.92 18L54.3 18.62C54.0133 18.34 53.7 18.1367 53.36 18.01C53.0267 17.8767 52.6633 17.81 52.27 17.81C51.87 17.81 51.4967 17.8767 51.15 18.01C50.81 18.1433 50.5133 18.33 50.26 18.57C50.0133 18.81 49.82 19.0967 49.68 19.43C49.5467 19.7567 49.48 20.1133 49.48 20.5C49.48 20.88 49.5467 21.2367 49.68 21.57C49.82 21.8967 50.0133 22.1833 50.26 22.43C50.5133 22.67 50.81 22.8567 51.15 22.99C51.49 23.1233 51.86 23.19 52.26 23.19C52.6333 23.19 52.99 23.1333 53.33 23.02C53.6767 22.9 53.9967 22.7033 54.29 22.43L54.86 23.19C54.5133 23.4833 54.1067 23.7067 53.64 23.86C53.18 24.0067 52.7033 24.08 52.21 24.08ZM53.9 23.06V20.46H54.86V23.19L53.9 23.06ZM59.2046 24.06C58.6713 24.06 58.1979 23.9433 57.7846 23.71C57.3713 23.4767 57.0446 23.1567 56.8046 22.75C56.5646 22.3367 56.4446 21.87 56.4446 21.35C56.4446 20.8233 56.5646 20.3567 56.8046 19.95C57.0446 19.5433 57.3713 19.2267 57.7846 19C58.1979 18.7667 58.6713 18.65 59.2046 18.65C59.7313 18.65 60.2013 18.7667 60.6146 19C61.0346 19.2267 61.3613 19.5433 61.5946 19.95C61.8346 20.35 61.9546 20.8167 61.9546 21.35C61.9546 21.8767 61.8346 22.3433 61.5946 22.75C61.3613 23.1567 61.0346 23.4767 60.6146 23.71C60.2013 23.9433 59.7313 24.06 59.2046 24.06ZM59.2046 23.22C59.5446 23.22 59.8479 23.1433 60.1146 22.99C60.3879 22.8367 60.6013 22.62 60.7546 22.34C60.9079 22.0533 60.9846 21.7233 60.9846 21.35C60.9846 20.97 60.9079 20.6433 60.7546 20.37C60.6013 20.09 60.3879 19.8733 60.1146 19.72C59.8479 19.5667 59.5446 19.49 59.2046 19.49C58.8646 19.49 58.5613 19.5667 58.2946 19.72C58.0279 19.8733 57.8146 20.09 57.6546 20.37C57.4946 20.6433 57.4146 20.97 57.4146 21.35C57.4146 21.7233 57.4946 22.0533 57.6546 22.34C57.8146 22.62 58.0279 22.8367 58.2946 22.99C58.5613 23.1433 58.8646 23.22 59.2046 23.22ZM65.8523 24.06C65.3189 24.06 64.8456 23.9433 64.4323 23.71C64.0189 23.4767 63.6923 23.1567 63.4523 22.75C63.2123 22.3367 63.0923 21.87 63.0923 21.35C63.0923 20.8233 63.2123 20.3567 63.4523 19.95C63.6923 19.5433 64.0189 19.2267 64.4323 19C64.8456 18.7667 65.3189 18.65 65.8523 18.65C66.3789 18.65 66.8489 18.7667 67.2623 19C67.6823 19.2267 68.0089 19.5433 68.2423 19.95C68.4823 20.35 68.6023 20.8167 68.6023 21.35C68.6023 21.8767 68.4823 22.3433 68.2423 22.75C68.0089 23.1567 67.6823 23.4767 67.2623 23.71C66.8489 23.9433 66.3789 24.06 65.8523 24.06ZM65.8523 23.22C66.1923 23.22 66.4956 23.1433 66.7623 22.99C67.0356 22.8367 67.2489 22.62 67.4023 22.34C67.5556 22.0533 67.6323 21.7233 67.6323 21.35C67.6323 20.97 67.5556 20.6433 67.4023 20.37C67.2489 20.09 67.0356 19.8733 66.7623 19.72C66.4956 19.5667 66.1923 19.49 65.8523 19.49C65.5123 19.49 65.2089 19.5667 64.9423 19.72C64.6756 19.8733 64.4623 20.09 64.3023 20.37C64.1423 20.6433 64.0623 20.97 64.0623 21.35C64.0623 21.7233 64.1423 22.0533 64.3023 22.34C64.4623 22.62 64.6756 22.8367 64.9423 22.99C65.2089 23.1433 65.5123 23.22 65.8523 23.22ZM72.5499 26C72.0633 26 71.5899 25.93 71.1299 25.79C70.6766 25.6567 70.3066 25.4633 70.0199 25.21L70.4799 24.47C70.7266 24.6833 71.0299 24.85 71.3899 24.97C71.7499 25.0967 72.1266 25.16 72.5199 25.16C73.1466 25.16 73.6066 25.0133 73.8999 24.72C74.1933 24.4267 74.3399 23.98 74.3399 23.38V22.26L74.4399 21.21L74.3899 20.15V18.7H75.2999V23.28C75.2999 24.2133 75.0666 24.9 74.5999 25.34C74.1333 25.78 73.4499 26 72.5499 26ZM72.4299 23.78C71.9166 23.78 71.4566 23.6733 71.0499 23.46C70.6499 23.24 70.3299 22.9367 70.0899 22.55C69.8566 22.1633 69.7399 21.7167 69.7399 21.21C69.7399 20.6967 69.8566 20.25 70.0899 19.87C70.3299 19.4833 70.6499 19.1833 71.0499 18.97C71.4566 18.7567 71.9166 18.65 72.4299 18.65C72.8833 18.65 73.2966 18.7433 73.6699 18.93C74.0433 19.11 74.3399 19.39 74.5599 19.77C74.7866 20.15 74.8999 20.63 74.8999 21.21C74.8999 21.7833 74.7866 22.26 74.5599 22.64C74.3399 23.02 74.0433 23.3067 73.6699 23.5C73.2966 23.6867 72.8833 23.78 72.4299 23.78ZM72.5399 22.94C72.8933 22.94 73.2066 22.8667 73.4799 22.72C73.7533 22.5733 73.9666 22.37 74.1199 22.11C74.2799 21.85 74.3599 21.55 74.3599 21.21C74.3599 20.87 74.2799 20.57 74.1199 20.31C73.9666 20.05 73.7533 19.85 73.4799 19.71C73.2066 19.5633 72.8933 19.49 72.5399 19.49C72.1866 19.49 71.8699 19.5633 71.5899 19.71C71.3166 19.85 71.0999 20.05 70.9399 20.31C70.7866 20.57 70.7099 20.87 70.7099 21.21C70.7099 21.55 70.7866 21.85 70.9399 22.11C71.0999 22.37 71.3166 22.5733 71.5899 22.72C71.8699 22.8667 72.1866 22.94 72.5399 22.94ZM77.4342 24V16.58H78.3942V24H77.4342ZM82.8872 24.06C82.3205 24.06 81.8205 23.9433 81.3872 23.71C80.9605 23.4767 80.6272 23.1567 80.3872 22.75C80.1539 22.3433 80.0372 21.8767 80.0372 21.35C80.0372 20.8233 80.1505 20.3567 80.3772 19.95C80.6105 19.5433 80.9272 19.2267 81.3272 19C81.7339 18.7667 82.1905 18.65 82.6972 18.65C83.2105 18.65 83.6639 18.7633 84.0572 18.99C84.4505 19.2167 84.7572 19.5367 84.9772 19.95C85.2039 20.3567 85.3172 20.8333 85.3172 21.38C85.3172 21.42 85.3139 21.4667 85.3072 21.52C85.3072 21.5733 85.3039 21.6233 85.2972 21.67H80.7872V20.98H84.7972L84.4072 21.22C84.4139 20.88 84.3439 20.5767 84.1972 20.31C84.0505 20.0433 83.8472 19.8367 83.5872 19.69C83.3339 19.5367 83.0372 19.46 82.6972 19.46C82.3639 19.46 82.0672 19.5367 81.8072 19.69C81.5472 19.8367 81.3439 20.0467 81.1972 20.32C81.0505 20.5867 80.9772 20.8933 80.9772 21.24V21.4C80.9772 21.7533 81.0572 22.07 81.2172 22.35C81.3839 22.6233 81.6139 22.8367 81.9072 22.99C82.2005 23.1433 82.5372 23.22 82.9172 23.22C83.2305 23.22 83.5139 23.1667 83.7672 23.06C84.0272 22.9533 84.2539 22.7933 84.4472 22.58L84.9772 23.2C84.7372 23.48 84.4372 23.6933 84.0772 23.84C83.7239 23.9867 83.3272 24.06 82.8872 24.06ZM90.0758 24V17H92.8058C93.4191 17 93.9424 17.0967 94.3758 17.29C94.8091 17.4833 95.1424 17.7633 95.3758 18.13C95.6091 18.4967 95.7258 18.9333 95.7258 19.44C95.7258 19.9467 95.6091 20.3833 95.3758 20.75C95.1424 21.11 94.8091 21.39 94.3758 21.59C93.9424 21.7833 93.4191 21.88 92.8058 21.88H90.6258L91.0758 21.41V24H90.0758ZM91.0758 21.51L90.6258 21.01H92.7758C93.4158 21.01 93.8991 20.8733 94.2258 20.6C94.5591 20.3267 94.7258 19.94 94.7258 19.44C94.7258 18.94 94.5591 18.5533 94.2258 18.28C93.8991 18.0067 93.4158 17.87 92.7758 17.87H90.6258L91.0758 17.37V21.51ZM97.4526 24V16.58H98.4126V24H97.4526ZM103.836 24V22.88L103.786 22.67V20.76C103.786 20.3533 103.666 20.04 103.426 19.82C103.192 19.5933 102.839 19.48 102.366 19.48C102.052 19.48 101.746 19.5333 101.446 19.64C101.146 19.74 100.892 19.8767 100.686 20.05L100.286 19.33C100.559 19.11 100.886 18.9433 101.266 18.83C101.652 18.71 102.056 18.65 102.476 18.65C103.202 18.65 103.762 18.8267 104.156 19.18C104.549 19.5333 104.746 20.0733 104.746 20.8V24H103.836ZM102.096 24.06C101.702 24.06 101.356 23.9933 101.056 23.86C100.762 23.7267 100.536 23.5433 100.376 23.31C100.216 23.07 100.136 22.8 100.136 22.5C100.136 22.2133 100.202 21.9533 100.336 21.72C100.476 21.4867 100.699 21.3 101.006 21.16C101.319 21.02 101.739 20.95 102.266 20.95H103.946V21.64H102.306C101.826 21.64 101.502 21.72 101.336 21.88C101.169 22.04 101.086 22.2333 101.086 22.46C101.086 22.72 101.189 22.93 101.396 23.09C101.602 23.2433 101.889 23.32 102.256 23.32C102.616 23.32 102.929 23.24 103.196 23.08C103.469 22.92 103.666 22.6867 103.786 22.38L103.976 23.04C103.849 23.3533 103.626 23.6033 103.306 23.79C102.986 23.97 102.582 24.06 102.096 24.06ZM106.954 26C106.701 26 106.454 25.9567 106.214 25.87C105.974 25.79 105.768 25.67 105.594 25.51L106.004 24.79C106.138 24.9167 106.284 25.0133 106.444 25.08C106.604 25.1467 106.774 25.18 106.954 25.18C107.188 25.18 107.381 25.12 107.534 25C107.688 24.88 107.831 24.6667 107.964 24.36L108.294 23.63L108.394 23.51L110.474 18.7H111.414L108.844 24.53C108.691 24.9033 108.518 25.1967 108.324 25.41C108.138 25.6233 107.931 25.7733 107.704 25.86C107.478 25.9533 107.228 26 106.954 26ZM108.214 24.17L105.794 18.7H106.794L108.854 23.42L108.214 24.17Z" fill="#A3F6AB"/>
</svg>
