<!--
  - Unitto is a calculator for Android
  - Copyright (c) 2024-2025 Elshan Agaev
  -
  - This program is free software: you can redistribute it and/or modify
  - it under the terms of the GNU General Public License as published by
  - the Free Software Foundation, either version 3 of the License, or
  - (at your option) any later version.
  -
  - This program is distributed in the hope that it will be useful,
  - but WITHOUT ANY WARRANTY; without even the implied warranty of
  - MERCHANTABILITY or FITNESS FOR A PARTICULAR PURPOSE.  See the
  - GNU General Public License for more details.
  -
  - You should have received a copy of the GNU General Public License
  - along with this program.  If not, see <https://www.gnu.org/licenses/>.
  -->

<svg width="164" height="40" viewBox="0 0 164 40" fill="none" xmlns="http://www.w3.org/2000/svg">
<rect width="164" height="40" rx="20" fill="#465830"/>
<path d="M20.0713 11.733C20.0249 11.8873 20 12.064 20 12.2611V27.7384C20 27.936 20.025 28.1128 20.0714 28.2672L28.3379 19.9995L20.0713 11.733Z" fill="#D5EBB6"/>
<path d="M20.7758 28.977C21.0615 29.0397 21.407 28.9756 21.7783 28.7651L31.5504 23.2121L29.045 20.7066L20.7758 28.977Z" fill="#D5EBB6"/>
<path d="M32.4526 22.7001L35.4255 21.011C36.4032 20.4547 36.4032 19.5456 35.4255 18.9899L32.4512 17.2999L29.752 19.9995L32.4526 22.7001Z" fill="#D5EBB6"/>
<path d="M31.5495 16.7875L21.7783 11.2352C21.4069 11.0242 21.0614 10.9602 20.7756 11.0231L29.0449 19.2924L31.5495 16.7875Z" fill="#D5EBB6"/>
<path d="M54.736 26.128C53.872 26.128 53.0773 25.9893 52.352 25.712C51.6267 25.424 50.9973 25.024 50.464 24.512C49.9307 23.9893 49.5147 23.3813 49.216 22.688C48.9173 21.9947 48.768 21.232 48.768 20.4C48.768 19.568 48.9173 18.8053 49.216 18.112C49.5147 17.4187 49.9307 16.816 50.464 16.304C51.008 15.7813 51.6427 15.3813 52.368 15.104C53.0933 14.816 53.8933 14.672 54.768 14.672C55.6533 14.672 56.464 14.816 57.2 15.104C57.936 15.392 58.56 15.824 59.072 16.4L58.08 17.392C57.6213 16.944 57.12 16.6187 56.576 16.416C56.0427 16.2027 55.4613 16.096 54.832 16.096C54.192 16.096 53.5947 16.2027 53.04 16.416C52.496 16.6293 52.0213 16.928 51.616 17.312C51.2213 17.696 50.912 18.1547 50.688 18.688C50.4747 19.2107 50.368 19.7813 50.368 20.4C50.368 21.008 50.4747 21.5787 50.688 22.112C50.912 22.6347 51.2213 23.0933 51.616 23.488C52.0213 23.872 52.496 24.1707 53.04 24.384C53.584 24.5973 54.176 24.704 54.816 24.704C55.4133 24.704 55.984 24.6133 56.528 24.432C57.0827 24.24 57.5947 23.9253 58.064 23.488L58.976 24.704C58.4213 25.1733 57.7707 25.5307 57.024 25.776C56.288 26.0107 55.5253 26.128 54.736 26.128ZM57.44 24.496V20.336H58.976V24.704L57.44 24.496ZM64.9474 26.096C64.094 26.096 63.3367 25.9093 62.6754 25.536C62.014 25.1627 61.4914 24.6507 61.1074 24C60.7234 23.3387 60.5314 22.592 60.5314 21.76C60.5314 20.9173 60.7234 20.1707 61.1074 19.52C61.4914 18.8693 62.014 18.3627 62.6754 18C63.3367 17.6267 64.094 17.44 64.9474 17.44C65.79 17.44 66.542 17.6267 67.2034 18C67.8754 18.3627 68.398 18.8693 68.7714 19.52C69.1554 20.16 69.3474 20.9067 69.3474 21.76C69.3474 22.6027 69.1554 23.3493 68.7714 24C68.398 24.6507 67.8754 25.1627 67.2034 25.536C66.542 25.9093 65.79 26.096 64.9474 26.096ZM64.9474 24.752C65.4914 24.752 65.9767 24.6293 66.4034 24.384C66.8407 24.1387 67.182 23.792 67.4274 23.344C67.6727 22.8853 67.7954 22.3573 67.7954 21.76C67.7954 21.152 67.6727 20.6293 67.4274 20.192C67.182 19.744 66.8407 19.3973 66.4034 19.152C65.9767 18.9067 65.4914 18.784 64.9474 18.784C64.4034 18.784 63.918 18.9067 63.4914 19.152C63.0647 19.3973 62.7234 19.744 62.4674 20.192C62.2114 20.6293 62.0834 21.152 62.0834 21.76C62.0834 22.3573 62.2114 22.8853 62.4674 23.344C62.7234 23.792 63.0647 24.1387 63.4914 24.384C63.918 24.6293 64.4034 24.752 64.9474 24.752ZM74.6036 26.096C73.7503 26.096 72.993 25.9093 72.3316 25.536C71.6703 25.1627 71.1476 24.6507 70.7636 24C70.3796 23.3387 70.1876 22.592 70.1876 21.76C70.1876 20.9173 70.3796 20.1707 70.7636 19.52C71.1476 18.8693 71.6703 18.3627 72.3316 18C72.993 17.6267 73.7503 17.44 74.6036 17.44C75.4463 17.44 76.1983 17.6267 76.8596 18C77.5316 18.3627 78.0543 18.8693 78.4276 19.52C78.8116 20.16 79.0036 20.9067 79.0036 21.76C79.0036 22.6027 78.8116 23.3493 78.4276 24C78.0543 24.6507 77.5316 25.1627 76.8596 25.536C76.1983 25.9093 75.4463 26.096 74.6036 26.096ZM74.6036 24.752C75.1476 24.752 75.633 24.6293 76.0596 24.384C76.497 24.1387 76.8383 23.792 77.0836 23.344C77.329 22.8853 77.4516 22.3573 77.4516 21.76C77.4516 21.152 77.329 20.6293 77.0836 20.192C76.8383 19.744 76.497 19.3973 76.0596 19.152C75.633 18.9067 75.1476 18.784 74.6036 18.784C74.0596 18.784 73.5743 18.9067 73.1476 19.152C72.721 19.3973 72.3796 19.744 72.1236 20.192C71.8676 20.6293 71.7396 21.152 71.7396 21.76C71.7396 22.3573 71.8676 22.8853 72.1236 23.344C72.3796 23.792 72.721 24.1387 73.1476 24.384C73.5743 24.6293 74.0596 24.752 74.6036 24.752ZM84.3399 29.2C83.5612 29.2 82.8039 29.088 82.0679 28.864C81.3425 28.6507 80.7505 28.3413 80.2919 27.936L81.0279 26.752C81.4225 27.0933 81.9079 27.36 82.4839 27.552C83.0599 27.7547 83.6625 27.856 84.2919 27.856C85.2945 27.856 86.0305 27.6213 86.4999 27.152C86.9692 26.6827 87.2039 25.968 87.2039 25.008V23.216L87.3639 21.536L87.2839 19.84V17.52H88.7399V24.848C88.7399 26.3413 88.3665 27.44 87.6199 28.144C86.8732 28.848 85.7799 29.2 84.3399 29.2ZM84.1479 25.648C83.3265 25.648 82.5905 25.4773 81.9399 25.136C81.2999 24.784 80.7879 24.2987 80.4039 23.68C80.0305 23.0613 79.8439 22.3467 79.8439 21.536C79.8439 20.7147 80.0305 20 80.4039 19.392C80.7879 18.7733 81.2999 18.2933 81.9399 17.952C82.5905 17.6107 83.3265 17.44 84.1479 17.44C84.8732 17.44 85.5345 17.5893 86.1319 17.888C86.7292 18.176 87.2039 18.624 87.5559 19.232C87.9185 19.84 88.0999 20.608 88.0999 21.536C88.0999 22.4533 87.9185 23.216 87.5559 23.824C87.2039 24.432 86.7292 24.8907 86.1319 25.2C85.5345 25.4987 84.8732 25.648 84.1479 25.648ZM84.3239 24.304C84.8892 24.304 85.3905 24.1867 85.8279 23.952C86.2652 23.7173 86.6065 23.392 86.8519 22.976C87.1079 22.56 87.2359 22.08 87.2359 21.536C87.2359 20.992 87.1079 20.512 86.8519 20.096C86.6065 19.68 86.2652 19.36 85.8279 19.136C85.3905 18.9013 84.8892 18.784 84.3239 18.784C83.7585 18.784 83.2519 18.9013 82.8039 19.136C82.3665 19.36 82.0199 19.68 81.7639 20.096C81.5185 20.512 81.3959 20.992 81.3959 21.536C81.3959 22.08 81.5185 22.56 81.7639 22.976C82.0199 23.392 82.3665 23.7173 82.8039 23.952C83.2519 24.1867 83.7585 24.304 84.3239 24.304ZM91.1748 26V14.128H92.7108V26H91.1748ZM98.9195 26.096C98.0128 26.096 97.2128 25.9093 96.5195 25.536C95.8368 25.1627 95.3035 24.6507 94.9195 24C94.5462 23.3493 94.3595 22.6027 94.3595 21.76C94.3595 20.9173 94.5408 20.1707 94.9035 19.52C95.2768 18.8693 95.7835 18.3627 96.4235 18C97.0742 17.6267 97.8048 17.44 98.6155 17.44C99.4368 17.44 100.162 17.6213 100.792 17.984C101.421 18.3467 101.912 18.8587 102.264 19.52C102.626 20.1707 102.808 20.9333 102.808 21.808C102.808 21.872 102.802 21.9467 102.792 22.032C102.792 22.1173 102.786 22.1973 102.776 22.272H95.5595V21.168H101.976L101.352 21.552C101.362 21.008 101.25 20.5227 101.016 20.096C100.781 19.6693 100.456 19.3387 100.04 19.104C99.6342 18.8587 99.1595 18.736 98.6155 18.736C98.0822 18.736 97.6075 18.8587 97.1915 19.104C96.7755 19.3387 96.4502 19.6747 96.2155 20.112C95.9808 20.5387 95.8635 21.0293 95.8635 21.584V21.84C95.8635 22.4053 95.9915 22.912 96.2475 23.36C96.5142 23.7973 96.8822 24.1387 97.3515 24.384C97.8208 24.6293 98.3595 24.752 98.9675 24.752C99.4688 24.752 99.9222 24.6667 100.328 24.496C100.744 24.3253 101.106 24.0693 101.416 23.728L102.264 24.72C101.88 25.168 101.4 25.5093 100.824 25.744C100.258 25.9787 99.6235 26.096 98.9195 26.096ZM108.461 26V14.8H112.829C113.811 14.8 114.648 14.9547 115.341 15.264C116.035 15.5733 116.568 16.0213 116.941 16.608C117.315 17.1947 117.501 17.8933 117.501 18.704C117.501 19.5147 117.315 20.2133 116.941 20.8C116.568 21.376 116.035 21.824 115.341 22.144C114.648 22.4533 113.811 22.608 112.829 22.608H109.341L110.061 21.856V26H108.461ZM110.061 22.016L109.341 21.216H112.781C113.805 21.216 114.579 20.9973 115.101 20.56C115.635 20.1227 115.901 19.504 115.901 18.704C115.901 17.904 115.635 17.2853 115.101 16.848C114.579 16.4107 113.805 16.192 112.781 16.192H109.341L110.061 15.392V22.016ZM119.284 26V14.128H120.82V26H119.284ZM128.517 26V24.208L128.437 23.872V20.816C128.437 20.1653 128.245 19.664 127.861 19.312C127.488 18.9493 126.922 18.768 126.165 18.768C125.664 18.768 125.173 18.8533 124.693 19.024C124.213 19.184 123.808 19.4027 123.477 19.68L122.837 18.528C123.274 18.176 123.797 17.9093 124.405 17.728C125.024 17.536 125.669 17.44 126.341 17.44C127.504 17.44 128.4 17.7227 129.029 18.288C129.658 18.8533 129.973 19.7173 129.973 20.88V26H128.517ZM125.733 26.096C125.104 26.096 124.549 25.9893 124.069 25.776C123.6 25.5627 123.237 25.2693 122.981 24.896C122.725 24.512 122.597 24.08 122.597 23.6C122.597 23.1413 122.704 22.7253 122.917 22.352C123.141 21.9787 123.498 21.68 123.989 21.456C124.49 21.232 125.162 21.12 126.005 21.12H128.693V22.224H126.069C125.301 22.224 124.784 22.352 124.517 22.608C124.25 22.864 124.117 23.1733 124.117 23.536C124.117 23.952 124.282 24.288 124.613 24.544C124.944 24.7893 125.402 24.912 125.989 24.912C126.565 24.912 127.066 24.784 127.493 24.528C127.93 24.272 128.245 23.8987 128.437 23.408L128.741 24.464C128.538 24.9653 128.181 25.3653 127.669 25.664C127.157 25.952 126.512 26.096 125.733 26.096ZM132.527 29.2C132.122 29.2 131.727 29.1307 131.343 28.992C130.959 28.864 130.628 28.672 130.351 28.416L131.007 27.264C131.22 27.4667 131.455 27.6213 131.711 27.728C131.967 27.8347 132.239 27.888 132.527 27.888C132.9 27.888 133.21 27.792 133.455 27.6C133.7 27.408 133.93 27.0667 134.143 26.576L134.671 25.408L134.831 25.216L138.159 17.52H139.663L135.551 26.848C135.306 27.4453 135.028 27.9147 134.719 28.256C134.42 28.5973 134.09 28.8373 133.727 28.976C133.364 29.1253 132.964 29.2 132.527 29.2ZM134.543 26.272L130.671 17.52H132.271L135.567 25.072L134.543 26.272Z" fill="#D5EBB6"/>
</svg>
