<!--
  - Unitto is a calculator for Android
  - Copyright (c) 2023-2025 Elshan Agaev
  -
  - This program is free software: you can redistribute it and/or modify
  - it under the terms of the GNU General Public License as published by
  - the Free Software Foundation, either version 3 of the License, or
  - (at your option) any later version.
  -
  - This program is distributed in the hope that it will be useful,
  - but WITHOUT ANY WARRANTY; without even the implied warranty of
  - MERCHANTABILITY or FITNESS FOR A PARTICULAR PURPOSE.  See the
  - GNU General Public License for more details.
  -
  - You should have received a copy of the GNU General Public License
  - along with this program.  If not, see <https://www.gnu.org/licenses/>.
  -->

<svg width="158" height="40" viewBox="0 0 158 40" fill="none" xmlns="http://www.w3.org/2000/svg">
<rect width="158" height="40" rx="20" fill="#465830"/>
<mask id="mask0_1538_139" style="mask-type:alpha" maskUnits="userSpaceOnUse" x="16" y="8" width="24" height="24">
<rect x="16" y="8" width="24" height="24" fill="#D9D9D9"/>
</mask>
<g mask="url(#mask0_1538_139)">
<path d="M28 27C29.1 27 30.0417 26.6083 30.825 25.825C31.6083 25.0417 32 24.1 32 23V19C32 17.9 31.6083 16.9583 30.825 16.175C30.0417 15.3917 29.1 15 28 15C26.9 15 25.9583 15.3917 25.175 16.175C24.3917 16.9583 24 17.9 24 19V23C24 24.1 24.3917 25.0417 25.175 25.825C25.9583 26.6083 26.9 27 28 27ZM26 24H30V22H26V24ZM26 20H30V18H26V20ZM28 29C26.9167 29 25.9125 28.7333 24.9875 28.2C24.0625 27.6667 23.3333 26.9333 22.8 26H20V24H22.1C22.05 23.6667 22.0208 23.3333 22.0125 23C22.0042 22.6667 22 22.3333 22 22H20V20H22C22 19.6667 22.0042 19.3333 22.0125 19C22.0208 18.6667 22.05 18.3333 22.1 18H20V16H22.8C23.0333 15.6167 23.2958 15.2583 23.5875 14.925C23.8792 14.5917 24.2167 14.3 24.6 14.05L23 12.4L24.4 11L26.55 13.15C27.0167 13 27.4917 12.925 27.975 12.925C28.4583 12.925 28.9333 13 29.4 13.15L31.6 11L33 12.4L31.35 14.05C31.7333 14.3 32.0792 14.5875 32.3875 14.9125C32.6958 15.2375 32.9667 15.6 33.2 16H36V18H33.9C33.95 18.3333 33.9792 18.6667 33.9875 19C33.9958 19.3333 34 19.6667 34 20H36V22H34C34 22.3333 33.9958 22.6667 33.9875 23C33.9792 23.3333 33.95 23.6667 33.9 24H36V26H33.2C32.6667 26.9333 31.9375 27.6667 31.0125 28.2C30.0875 28.7333 29.0833 29 28 29Z" fill="#D5EBB6"/>
</g>
<path d="M54.736 26.128C53.8827 26.128 53.088 25.984 52.352 25.696C51.6267 25.408 50.9973 25.008 50.464 24.496C49.9307 23.9733 49.5147 23.3653 49.216 22.672C48.9173 21.9787 48.768 21.2213 48.768 20.4C48.768 19.5787 48.9173 18.8213 49.216 18.128C49.5147 17.4347 49.9307 16.832 50.464 16.32C50.9973 15.7973 51.6267 15.392 52.352 15.104C53.0773 14.816 53.872 14.672 54.736 14.672C55.5893 14.672 56.3733 14.816 57.088 15.104C57.8133 15.3813 58.4427 15.7813 58.976 16.304C59.52 16.816 59.936 17.4187 60.224 18.112C60.5227 18.8053 60.672 19.568 60.672 20.4C60.672 21.232 60.5227 21.9947 60.224 22.688C59.936 23.3813 59.52 23.9893 58.976 24.512C58.4427 25.024 57.8133 25.424 57.088 25.712C56.3733 25.9893 55.5893 26.128 54.736 26.128ZM54.736 24.704C55.3547 24.704 55.9253 24.5973 56.448 24.384C56.9813 24.1707 57.44 23.872 57.824 23.488C58.2187 23.0933 58.5227 22.6347 58.736 22.112C58.96 21.5893 59.072 21.0187 59.072 20.4C59.072 19.7813 58.96 19.2107 58.736 18.688C58.5227 18.1653 58.2187 17.712 57.824 17.328C57.44 16.9333 56.9813 16.6293 56.448 16.416C55.9253 16.2027 55.3547 16.096 54.736 16.096C54.1067 16.096 53.5253 16.2027 52.992 16.416C52.4693 16.6293 52.0107 16.9333 51.616 17.328C51.2213 17.712 50.912 18.1653 50.688 18.688C50.4747 19.2107 50.368 19.7813 50.368 20.4C50.368 21.0187 50.4747 21.5893 50.688 22.112C50.912 22.6347 51.2213 23.0933 51.616 23.488C52.0107 23.872 52.4693 24.1707 52.992 24.384C53.5253 24.5973 54.1067 24.704 54.736 24.704ZM66.8895 26.096C66.1855 26.096 65.5402 25.936 64.9535 25.616C64.3775 25.2853 63.9135 24.8 63.5615 24.16C63.2202 23.52 63.0495 22.72 63.0495 21.76C63.0495 20.8 63.2148 20 63.5455 19.36C63.8868 18.72 64.3455 18.24 64.9215 17.92C65.5082 17.6 66.1642 17.44 66.8895 17.44C67.7215 17.44 68.4575 17.6213 69.0975 17.984C69.7375 18.3467 70.2442 18.8533 70.6175 19.504C70.9908 20.144 71.1775 20.896 71.1775 21.76C71.1775 22.624 70.9908 23.3813 70.6175 24.032C70.2442 24.6827 69.7375 25.1893 69.0975 25.552C68.4575 25.9147 67.7215 26.096 66.8895 26.096ZM62.3935 29.104V17.52H63.8655V19.808L63.7695 21.776L63.9295 23.744V29.104H62.3935ZM66.7615 24.752C67.3055 24.752 67.7908 24.6293 68.2175 24.384C68.6548 24.1387 68.9962 23.792 69.2415 23.344C69.4975 22.8853 69.6255 22.3573 69.6255 21.76C69.6255 21.152 69.4975 20.6293 69.2415 20.192C68.9962 19.744 68.6548 19.3973 68.2175 19.152C67.7908 18.9067 67.3055 18.784 66.7615 18.784C66.2282 18.784 65.7428 18.9067 65.3055 19.152C64.8788 19.3973 64.5375 19.744 64.2815 20.192C64.0362 20.6293 63.9135 21.152 63.9135 21.76C63.9135 22.3573 64.0362 22.8853 64.2815 23.344C64.5375 23.792 64.8788 24.1387 65.3055 24.384C65.7428 24.6293 66.2282 24.752 66.7615 24.752ZM76.5758 26.096C75.6691 26.096 74.8691 25.9093 74.1758 25.536C73.4931 25.1627 72.9598 24.6507 72.5758 24C72.2024 23.3493 72.0158 22.6027 72.0158 21.76C72.0158 20.9173 72.1971 20.1707 72.5598 19.52C72.9331 18.8693 73.4398 18.3627 74.0798 18C74.7304 17.6267 75.4611 17.44 76.2718 17.44C77.0931 17.44 77.8184 17.6213 78.4478 17.984C79.0771 18.3467 79.5678 18.8587 79.9198 19.52C80.2824 20.1707 80.4638 20.9333 80.4638 21.808C80.4638 21.872 80.4584 21.9467 80.4478 22.032C80.4478 22.1173 80.4424 22.1973 80.4318 22.272H73.2158V21.168H79.6318L79.0078 21.552C79.0184 21.008 78.9064 20.5227 78.6718 20.096C78.4371 19.6693 78.1118 19.3387 77.6958 19.104C77.2904 18.8587 76.8158 18.736 76.2718 18.736C75.7384 18.736 75.2638 18.8587 74.8478 19.104C74.4318 19.3387 74.1064 19.6747 73.8718 20.112C73.6371 20.5387 73.5198 21.0293 73.5198 21.584V21.84C73.5198 22.4053 73.6478 22.912 73.9038 23.36C74.1704 23.7973 74.5384 24.1387 75.0078 24.384C75.4771 24.6293 76.0158 24.752 76.6238 24.752C77.1251 24.752 77.5784 24.6667 77.9838 24.496C78.3998 24.3253 78.7624 24.0693 79.0718 23.728L79.9198 24.72C79.5358 25.168 79.0558 25.5093 78.4798 25.744C77.9144 25.9787 77.2798 26.096 76.5758 26.096ZM86.6246 17.44C87.318 17.44 87.926 17.5733 88.4486 17.84C88.982 18.1067 89.398 18.512 89.6966 19.056C89.9953 19.6 90.1446 20.288 90.1446 21.12V26H88.6086V21.296C88.6086 20.4747 88.406 19.856 88.0006 19.44C87.606 19.024 87.046 18.816 86.3206 18.816C85.7766 18.816 85.302 18.9227 84.8966 19.136C84.4913 19.3493 84.1766 19.664 83.9526 20.08C83.7393 20.496 83.6326 21.0133 83.6326 21.632V26H82.0966V17.52H83.5686V19.808L83.3286 19.2C83.606 18.6453 84.0326 18.2133 84.6086 17.904C85.1846 17.5947 85.8566 17.44 86.6246 17.44ZM96.2841 26V17.52H97.8201V26H96.2841ZM97.0521 15.888C96.7535 15.888 96.5028 15.792 96.3001 15.6C96.1081 15.408 96.0121 15.1733 96.0121 14.896C96.0121 14.608 96.1081 14.368 96.3001 14.176C96.5028 13.984 96.7535 13.888 97.0521 13.888C97.3508 13.888 97.5961 13.984 97.7881 14.176C97.9908 14.3573 98.0921 14.5867 98.0921 14.864C98.0921 15.152 97.9961 15.3973 97.8041 15.6C97.6121 15.792 97.3615 15.888 97.0521 15.888ZM102.685 26.096C101.981 26.096 101.309 26 100.669 25.808C100.04 25.616 99.5435 25.3813 99.1809 25.104L99.8209 23.888C100.184 24.1333 100.632 24.3413 101.165 24.512C101.698 24.6827 102.242 24.768 102.797 24.768C103.512 24.768 104.024 24.6667 104.333 24.464C104.653 24.2613 104.813 23.9787 104.813 23.616C104.813 23.3493 104.717 23.1413 104.525 22.992C104.333 22.8427 104.077 22.7307 103.757 22.656C103.448 22.5813 103.101 22.5173 102.717 22.464C102.333 22.4 101.949 22.3253 101.565 22.24C101.181 22.144 100.829 22.016 100.509 21.856C100.189 21.6853 99.9329 21.456 99.7409 21.168C99.5489 20.8693 99.4529 20.4747 99.4529 19.984C99.4529 19.472 99.5969 19.024 99.8849 18.64C100.173 18.256 100.578 17.9627 101.101 17.76C101.634 17.5467 102.264 17.44 102.989 17.44C103.544 17.44 104.104 17.5093 104.669 17.648C105.245 17.776 105.714 17.9627 106.077 18.208L105.421 19.424C105.037 19.168 104.637 18.992 104.221 18.896C103.805 18.8 103.389 18.752 102.973 18.752C102.301 18.752 101.8 18.864 101.469 19.088C101.138 19.3013 100.973 19.5787 100.973 19.92C100.973 20.208 101.069 20.432 101.261 20.592C101.464 20.7413 101.72 20.8587 102.029 20.944C102.349 21.0293 102.701 21.104 103.085 21.168C103.469 21.2213 103.853 21.296 104.237 21.392C104.621 21.4773 104.968 21.6 105.277 21.76C105.597 21.92 105.853 22.144 106.045 22.432C106.248 22.72 106.349 23.104 106.349 23.584C106.349 24.096 106.2 24.5387 105.901 24.912C105.602 25.2853 105.181 25.5787 104.637 25.792C104.093 25.9947 103.442 26.096 102.685 26.096ZM110.201 26.096C109.497 26.096 108.825 26 108.185 25.808C107.555 25.616 107.059 25.3813 106.697 25.104L107.337 23.888C107.699 24.1333 108.147 24.3413 108.681 24.512C109.214 24.6827 109.758 24.768 110.312 24.768C111.027 24.768 111.539 24.6667 111.849 24.464C112.169 24.2613 112.329 23.9787 112.329 23.616C112.329 23.3493 112.233 23.1413 112.041 22.992C111.849 22.8427 111.593 22.7307 111.273 22.656C110.963 22.5813 110.617 22.5173 110.233 22.464C109.849 22.4 109.465 22.3253 109.081 22.24C108.697 22.144 108.345 22.016 108.025 21.856C107.705 21.6853 107.449 21.456 107.257 21.168C107.065 20.8693 106.969 20.4747 106.969 19.984C106.969 19.472 107.113 19.024 107.401 18.64C107.689 18.256 108.094 17.9627 108.617 17.76C109.15 17.5467 109.779 17.44 110.505 17.44C111.059 17.44 111.619 17.5093 112.185 17.648C112.761 17.776 113.23 17.9627 113.593 18.208L112.937 19.424C112.553 19.168 112.153 18.992 111.737 18.896C111.321 18.8 110.905 18.752 110.489 18.752C109.817 18.752 109.315 18.864 108.985 19.088C108.654 19.3013 108.489 19.5787 108.489 19.92C108.489 20.208 108.585 20.432 108.777 20.592C108.979 20.7413 109.235 20.8587 109.545 20.944C109.865 21.0293 110.217 21.104 110.601 21.168C110.985 21.2213 111.369 21.296 111.753 21.392C112.137 21.4773 112.483 21.6 112.793 21.76C113.113 21.92 113.369 22.144 113.561 22.432C113.763 22.72 113.865 23.104 113.865 23.584C113.865 24.096 113.715 24.5387 113.417 24.912C113.118 25.2853 112.697 25.5787 112.153 25.792C111.609 25.9947 110.958 26.096 110.201 26.096ZM118.852 26.096C118.127 26.096 117.487 25.9627 116.932 25.696C116.388 25.4293 115.961 25.024 115.652 24.48C115.353 23.9253 115.204 23.232 115.204 22.4V17.52H116.74V22.224C116.74 23.056 116.937 23.68 117.332 24.096C117.737 24.512 118.303 24.72 119.028 24.72C119.561 24.72 120.025 24.6133 120.42 24.4C120.815 24.176 121.119 23.856 121.332 23.44C121.545 23.0133 121.652 22.5013 121.652 21.904V17.52H123.188V26H121.732V23.712L121.972 24.32C121.695 24.8853 121.279 25.3227 120.724 25.632C120.169 25.9413 119.545 26.096 118.852 26.096ZM129.388 26.096C128.482 26.096 127.682 25.9093 126.988 25.536C126.306 25.1627 125.772 24.6507 125.388 24C125.015 23.3493 124.828 22.6027 124.828 21.76C124.828 20.9173 125.01 20.1707 125.372 19.52C125.746 18.8693 126.252 18.3627 126.892 18C127.543 17.6267 128.274 17.44 129.084 17.44C129.906 17.44 130.631 17.6213 131.26 17.984C131.89 18.3467 132.38 18.8587 132.732 19.52C133.095 20.1707 133.276 20.9333 133.276 21.808C133.276 21.872 133.271 21.9467 133.26 22.032C133.26 22.1173 133.255 22.1973 133.244 22.272H126.028V21.168H132.444L131.82 21.552C131.831 21.008 131.719 20.5227 131.484 20.096C131.25 19.6693 130.924 19.3387 130.508 19.104C130.103 18.8587 129.628 18.736 129.084 18.736C128.551 18.736 128.076 18.8587 127.66 19.104C127.244 19.3387 126.919 19.6747 126.684 20.112C126.45 20.5387 126.332 21.0293 126.332 21.584V21.84C126.332 22.4053 126.46 22.912 126.716 23.36C126.983 23.7973 127.351 24.1387 127.82 24.384C128.29 24.6293 128.828 24.752 129.436 24.752C129.938 24.752 130.391 24.6667 130.796 24.496C131.212 24.3253 131.575 24.0693 131.884 23.728L132.732 24.72C132.348 25.168 131.868 25.5093 131.292 25.744C130.727 25.9787 130.092 26.096 129.388 26.096Z" fill="#D5EBB6"/>
</svg>
