<!--
  - Unitto is a calculator for Android
  - Copyright (c) 2023-2025 Elshan Agaev
  -
  - This program is free software: you can redistribute it and/or modify
  - it under the terms of the GNU General Public License as published by
  - the Free Software Foundation, either version 3 of the License, or
  - (at your option) any later version.
  -
  - This program is distributed in the hope that it will be useful,
  - but WITHOUT ANY WARRANTY; without even the implied warranty of
  - MERCHANTABILITY or FITNESS FOR A PARTICULAR PURPOSE.  See the
  - GNU General Public License for more details.
  -
  - You should have received a copy of the GNU General Public License
  - along with this program.  If not, see <https://www.gnu.org/licenses/>.
  -->

<svg width="231" height="40" viewBox="0 0 231 40" fill="none" xmlns="http://www.w3.org/2000/svg">
<rect width="231" height="40" rx="20" fill="#F6E6A0"/>
<path d="M31.401 28.4148C31.1662 28.2903 29.7942 27.5301 23.3675 23.9631C21.579 22.9705 19.8571 22.016 19.541 21.8419C18.823 21.4467 18.7126 21.3495 18.7126 21.1117C18.7126 20.9873 18.9992 20.19 19.6708 18.4459C20.1978 17.0773 20.6638 15.878 20.7064 15.7808C20.8035 15.5593 20.9599 15.3712 21.1126 15.2922C21.2556 15.2183 24.8291 13.9132 25.0113 13.8684C25.2082 13.82 25.378 13.9133 25.4782 14.1249C25.5262 14.2264 25.726 14.7505 25.922 15.2894C26.1181 15.8284 26.4099 16.6254 26.5706 17.0604C26.9388 18.0572 26.9525 18.1984 26.6962 18.3498C26.6282 18.3899 26.1863 18.5634 25.7141 18.7352C25.2419 18.907 24.7914 19.0849 24.7129 19.1306C24.5318 19.2359 24.5045 19.3986 24.6461 19.5294C24.7023 19.5814 25.6102 20.0993 26.6637 20.6803C29.6081 22.3043 29.4447 22.2308 29.6411 22.0189C29.7373 21.915 31.4965 17.4406 31.5974 17.0429C31.6406 16.8729 31.6358 16.8493 31.5439 16.7748C31.4182 16.6731 31.4364 16.6687 30.2801 17.0775C29.1346 17.4825 29.0255 17.4911 28.872 17.1882C28.7915 17.0291 27.5576 13.6404 27.481 13.3678C27.4315 13.1914 27.492 13.0239 27.6405 12.9266C27.7022 12.8861 28.6001 12.5417 29.6358 12.1611C31.1728 11.5963 31.564 11.4684 31.7639 11.4652C32.0219 11.4611 32.0557 11.4788 36.7848 14.0955C37.1125 14.2768 37.2873 14.4677 37.2873 14.644C37.2873 14.714 36.1147 17.8244 34.6816 21.556C32.6603 26.8188 32.0503 28.3632 31.9619 28.4409C31.8118 28.5731 31.6888 28.5674 31.401 28.4148Z" fill="#5E531D" stroke="#5E531D" stroke-width="0.525354"/>
<path d="M54.736 26.128C53.8827 26.128 53.088 25.984 52.352 25.696C51.6267 25.408 50.9973 25.008 50.464 24.496C49.9307 23.9733 49.5147 23.3653 49.216 22.672C48.9173 21.9787 48.768 21.2213 48.768 20.4C48.768 19.5787 48.9173 18.8213 49.216 18.128C49.5147 17.4347 49.9307 16.832 50.464 16.32C50.9973 15.7973 51.6267 15.392 52.352 15.104C53.0773 14.816 53.872 14.672 54.736 14.672C55.5893 14.672 56.3733 14.816 57.088 15.104C57.8133 15.3813 58.4427 15.7813 58.976 16.304C59.52 16.816 59.936 17.4187 60.224 18.112C60.5227 18.8053 60.672 19.568 60.672 20.4C60.672 21.232 60.5227 21.9947 60.224 22.688C59.936 23.3813 59.52 23.9893 58.976 24.512C58.4427 25.024 57.8133 25.424 57.088 25.712C56.3733 25.9893 55.5893 26.128 54.736 26.128ZM54.736 24.704C55.3547 24.704 55.9253 24.5973 56.448 24.384C56.9813 24.1707 57.44 23.872 57.824 23.488C58.2187 23.0933 58.5227 22.6347 58.736 22.112C58.96 21.5893 59.072 21.0187 59.072 20.4C59.072 19.7813 58.96 19.2107 58.736 18.688C58.5227 18.1653 58.2187 17.712 57.824 17.328C57.44 16.9333 56.9813 16.6293 56.448 16.416C55.9253 16.2027 55.3547 16.096 54.736 16.096C54.1067 16.096 53.5253 16.2027 52.992 16.416C52.4693 16.6293 52.0107 16.9333 51.616 17.328C51.2213 17.712 50.912 18.1653 50.688 18.688C50.4747 19.2107 50.368 19.7813 50.368 20.4C50.368 21.0187 50.4747 21.5893 50.688 22.112C50.912 22.6347 51.2213 23.0933 51.616 23.488C52.0107 23.872 52.4693 24.1707 52.992 24.384C53.5253 24.5973 54.1067 24.704 54.736 24.704ZM66.8895 26.096C66.1642 26.096 65.5082 25.936 64.9215 25.616C64.3455 25.2853 63.8868 24.8 63.5455 24.16C63.2148 23.52 63.0495 22.72 63.0495 21.76C63.0495 20.8 63.2202 20 63.5615 19.36C63.9135 18.72 64.3775 18.24 64.9535 17.92C65.5402 17.6 66.1855 17.44 66.8895 17.44C67.7215 17.44 68.4575 17.6213 69.0975 17.984C69.7375 18.3467 70.2442 18.8533 70.6175 19.504C70.9908 20.144 71.1775 20.896 71.1775 21.76C71.1775 22.624 70.9908 23.3813 70.6175 24.032C70.2442 24.6827 69.7375 25.1893 69.0975 25.552C68.4575 25.9147 67.7215 26.096 66.8895 26.096ZM62.3935 26V14.128H63.9295V19.776L63.7695 21.744L63.8655 23.712V26H62.3935ZM66.7615 24.752C67.3055 24.752 67.7908 24.6293 68.2175 24.384C68.6548 24.1387 68.9962 23.792 69.2415 23.344C69.4975 22.8853 69.6255 22.3573 69.6255 21.76C69.6255 21.152 69.4975 20.6293 69.2415 20.192C68.9962 19.744 68.6548 19.3973 68.2175 19.152C67.7908 18.9067 67.3055 18.784 66.7615 18.784C66.2282 18.784 65.7428 18.9067 65.3055 19.152C64.8788 19.3973 64.5375 19.744 64.2815 20.192C64.0362 20.6293 63.9135 21.152 63.9135 21.76C63.9135 22.3573 64.0362 22.8853 64.2815 23.344C64.5375 23.792 64.8788 24.1387 65.3055 24.384C65.7428 24.6293 66.2282 24.752 66.7615 24.752ZM75.7118 26.096C74.8584 26.096 74.1971 25.8667 73.7278 25.408C73.2584 24.9493 73.0238 24.2933 73.0238 23.44V15.664H74.5598V23.376C74.5598 23.8347 74.6718 24.1867 74.8958 24.432C75.1304 24.6773 75.4611 24.8 75.8878 24.8C76.3678 24.8 76.7678 24.6667 77.0878 24.4L77.5678 25.504C77.3331 25.7067 77.0504 25.856 76.7198 25.952C76.3998 26.048 76.0638 26.096 75.7118 26.096ZM71.5838 18.784V17.52H76.9918V18.784H71.5838ZM84.1888 26V24.208L84.1088 23.872V20.816C84.1088 20.1653 83.9168 19.664 83.5328 19.312C83.1594 18.9493 82.5941 18.768 81.8368 18.768C81.3354 18.768 80.8448 18.8533 80.3648 19.024C79.8848 19.184 79.4794 19.4027 79.1488 19.68L78.5088 18.528C78.9461 18.176 79.4688 17.9093 80.0768 17.728C80.6954 17.536 81.3408 17.44 82.0128 17.44C83.1754 17.44 84.0714 17.7227 84.7008 18.288C85.3301 18.8533 85.6448 19.7173 85.6448 20.88V26H84.1888ZM81.4048 26.096C80.7754 26.096 80.2208 25.9893 79.7408 25.776C79.2714 25.5627 78.9088 25.2693 78.6528 24.896C78.3968 24.512 78.2688 24.08 78.2688 23.6C78.2688 23.1413 78.3754 22.7253 78.5888 22.352C78.8128 21.9787 79.1701 21.68 79.6608 21.456C80.1621 21.232 80.8341 21.12 81.6768 21.12H84.3648V22.224H81.7408C80.9728 22.224 80.4554 22.352 80.1888 22.608C79.9221 22.864 79.7888 23.1733 79.7888 23.536C79.7888 23.952 79.9541 24.288 80.2848 24.544C80.6154 24.7893 81.0741 24.912 81.6608 24.912C82.2368 24.912 82.7381 24.784 83.1648 24.528C83.6021 24.272 83.9168 23.8987 84.1088 23.408L84.4128 24.464C84.2101 24.9653 83.8528 25.3653 83.3408 25.664C82.8288 25.952 82.1834 26.096 81.4048 26.096ZM87.9873 26V17.52H89.5233V26H87.9873ZM88.7553 15.888C88.4566 15.888 88.2059 15.792 88.0033 15.6C87.8113 15.408 87.7153 15.1733 87.7153 14.896C87.7153 14.608 87.8113 14.368 88.0033 14.176C88.2059 13.984 88.4566 13.888 88.7553 13.888C89.0539 13.888 89.2993 13.984 89.4913 14.176C89.6939 14.3573 89.7953 14.5867 89.7953 14.864C89.7953 15.152 89.6993 15.3973 89.5073 15.6C89.3153 15.792 89.0646 15.888 88.7553 15.888ZM96.484 17.44C97.1773 17.44 97.7853 17.5733 98.308 17.84C98.8413 18.1067 99.2573 18.512 99.556 19.056C99.8547 19.6 100.004 20.288 100.004 21.12V26H98.468V21.296C98.468 20.4747 98.2653 19.856 97.86 19.44C97.4653 19.024 96.9053 18.816 96.18 18.816C95.636 18.816 95.1613 18.9227 94.756 19.136C94.3507 19.3493 94.036 19.664 93.812 20.08C93.5987 20.496 93.492 21.0133 93.492 21.632V26H91.956V17.52H93.428V19.808L93.188 19.2C93.4653 18.6453 93.892 18.2133 94.468 17.904C95.044 17.5947 95.716 17.44 96.484 17.44ZM102.347 26V17.52H103.883V26H102.347ZM103.115 15.888C102.816 15.888 102.565 15.792 102.363 15.6C102.171 15.408 102.075 15.1733 102.075 14.896C102.075 14.608 102.171 14.368 102.363 14.176C102.565 13.984 102.816 13.888 103.115 13.888C103.413 13.888 103.659 13.984 103.851 14.176C104.053 14.3573 104.155 14.5867 104.155 14.864C104.155 15.152 104.059 15.3973 103.867 15.6C103.675 15.792 103.424 15.888 103.115 15.888ZM109.883 26.096C109.158 26.096 108.518 25.9627 107.963 25.696C107.419 25.4293 106.993 25.024 106.683 24.48C106.385 23.9253 106.235 23.232 106.235 22.4V17.52H107.771V22.224C107.771 23.056 107.969 23.68 108.363 24.096C108.769 24.512 109.334 24.72 110.059 24.72C110.593 24.72 111.057 24.6133 111.451 24.4C111.846 24.176 112.15 23.856 112.363 23.44C112.577 23.0133 112.683 22.5013 112.683 21.904V17.52H114.219V26H112.763V23.712L113.003 24.32C112.726 24.8853 112.31 25.3227 111.755 25.632C111.201 25.9413 110.577 26.096 109.883 26.096ZM127.252 17.44C127.934 17.44 128.537 17.5733 129.06 17.84C129.582 18.1067 129.988 18.512 130.276 19.056C130.574 19.6 130.724 20.288 130.724 21.12V26H129.188V21.296C129.188 20.4747 128.996 19.856 128.612 19.44C128.228 19.024 127.689 18.816 126.996 18.816C126.484 18.816 126.036 18.9227 125.652 19.136C125.268 19.3493 124.969 19.664 124.756 20.08C124.553 20.496 124.452 21.0133 124.452 21.632V26H122.916V21.296C122.916 20.4747 122.724 19.856 122.34 19.44C121.966 19.024 121.428 18.816 120.724 18.816C120.222 18.816 119.78 18.9227 119.396 19.136C119.012 19.3493 118.713 19.664 118.5 20.08C118.286 20.496 118.18 21.0133 118.18 21.632V26H116.644V17.52H118.116V19.776L117.876 19.2C118.142 18.6453 118.553 18.2133 119.108 17.904C119.662 17.5947 120.308 17.44 121.044 17.44C121.854 17.44 122.553 17.6427 123.14 18.048C123.726 18.4427 124.11 19.0453 124.292 19.856L123.668 19.6C123.924 18.9493 124.372 18.4267 125.012 18.032C125.652 17.6373 126.398 17.44 127.252 17.44ZM138.815 29.104C138.207 28.1333 137.737 27.0133 137.407 25.744C137.076 24.464 136.911 23.088 136.911 21.616C136.911 20.144 137.076 18.768 137.407 17.488C137.737 16.1973 138.207 15.0773 138.815 14.128H140.271C139.631 15.2587 139.161 16.4427 138.863 17.68C138.564 18.9067 138.415 20.2187 138.415 21.616C138.415 23.0133 138.564 24.3307 138.863 25.568C139.161 26.7947 139.631 27.9733 140.271 29.104H138.815ZM141.961 26V14.8H146.329C147.311 14.8 148.148 14.9547 148.841 15.264C149.535 15.5733 150.068 16.0213 150.441 16.608C150.815 17.1947 151.001 17.8933 151.001 18.704C151.001 19.5147 150.815 20.2133 150.441 20.8C150.068 21.376 149.535 21.824 148.841 22.144C148.148 22.4533 147.311 22.608 146.329 22.608H142.841L143.561 21.856V26H141.961ZM143.561 22.016L142.841 21.216H146.281C147.305 21.216 148.079 20.9973 148.601 20.56C149.135 20.1227 149.401 19.504 149.401 18.704C149.401 17.904 149.135 17.2853 148.601 16.848C148.079 16.4107 147.305 16.192 146.281 16.192H142.841L143.561 15.392V22.016ZM152.472 26V17.52H153.944V19.824L153.8 19.248C154.034 18.6613 154.429 18.2133 154.984 17.904C155.538 17.5947 156.221 17.44 157.032 17.44V18.928C156.968 18.9173 156.904 18.912 156.84 18.912C156.786 18.912 156.733 18.912 156.68 18.912C155.858 18.912 155.208 19.1573 154.728 19.648C154.248 20.1387 154.008 20.848 154.008 21.776V26H152.472ZM162.123 26.096C161.216 26.096 160.416 25.9093 159.723 25.536C159.04 25.1627 158.507 24.6507 158.123 24C157.749 23.3493 157.563 22.6027 157.563 21.76C157.563 20.9173 157.744 20.1707 158.107 19.52C158.48 18.8693 158.987 18.3627 159.627 18C160.277 17.6267 161.008 17.44 161.819 17.44C162.64 17.44 163.365 17.6213 163.995 17.984C164.624 18.3467 165.115 18.8587 165.467 19.52C165.829 20.1707 166.011 20.9333 166.011 21.808C166.011 21.872 166.005 21.9467 165.995 22.032C165.995 22.1173 165.989 22.1973 165.979 22.272H158.763V21.168H165.179L164.555 21.552C164.565 21.008 164.453 20.5227 164.219 20.096C163.984 19.6693 163.659 19.3387 163.243 19.104C162.837 18.8587 162.363 18.736 161.819 18.736C161.285 18.736 160.811 18.8587 160.395 19.104C159.979 19.3387 159.653 19.6747 159.419 20.112C159.184 20.5387 159.067 21.0293 159.067 21.584V21.84C159.067 22.4053 159.195 22.912 159.451 23.36C159.717 23.7973 160.085 24.1387 160.555 24.384C161.024 24.6293 161.563 24.752 162.171 24.752C162.672 24.752 163.125 24.6667 163.531 24.496C163.947 24.3253 164.309 24.0693 164.619 23.728L165.467 24.72C165.083 25.168 164.603 25.5093 164.027 25.744C163.461 25.9787 162.827 26.096 162.123 26.096ZM169.711 26L165.999 17.52H167.599L170.895 25.2H170.127L173.487 17.52H174.991L171.279 26H169.711ZM175.925 26V17.52H177.461V26H175.925ZM176.693 15.888C176.394 15.888 176.143 15.792 175.941 15.6C175.749 15.408 175.653 15.1733 175.653 14.896C175.653 14.608 175.749 14.368 175.941 14.176C176.143 13.984 176.394 13.888 176.693 13.888C176.991 13.888 177.237 13.984 177.429 14.176C177.631 14.3573 177.733 14.5867 177.733 14.864C177.733 15.152 177.637 15.3973 177.445 15.6C177.253 15.792 177.002 15.888 176.693 15.888ZM183.67 26.096C182.763 26.096 181.963 25.9093 181.27 25.536C180.587 25.1627 180.054 24.6507 179.67 24C179.296 23.3493 179.11 22.6027 179.11 21.76C179.11 20.9173 179.291 20.1707 179.654 19.52C180.027 18.8693 180.534 18.3627 181.174 18C181.824 17.6267 182.555 17.44 183.366 17.44C184.187 17.44 184.912 17.6213 185.542 17.984C186.171 18.3467 186.662 18.8587 187.014 19.52C187.376 20.1707 187.558 20.9333 187.558 21.808C187.558 21.872 187.552 21.9467 187.542 22.032C187.542 22.1173 187.536 22.1973 187.526 22.272H180.31V21.168H186.726L186.102 21.552C186.112 21.008 186 20.5227 185.766 20.096C185.531 19.6693 185.206 19.3387 184.79 19.104C184.384 18.8587 183.91 18.736 183.366 18.736C182.832 18.736 182.358 18.8587 181.942 19.104C181.526 19.3387 181.2 19.6747 180.966 20.112C180.731 20.5387 180.614 21.0293 180.614 21.584V21.84C180.614 22.4053 180.742 22.912 180.998 23.36C181.264 23.7973 181.632 24.1387 182.102 24.384C182.571 24.6293 183.11 24.752 183.718 24.752C184.219 24.752 184.672 24.6667 185.078 24.496C185.494 24.3253 185.856 24.0693 186.166 23.728L187.014 24.72C186.63 25.168 186.15 25.5093 185.574 25.744C185.008 25.9787 184.374 26.096 183.67 26.096ZM190.826 26L187.674 17.52H189.13L191.93 25.2H191.242L194.154 17.52H195.45L198.298 25.2H197.626L200.49 17.52H201.866L198.698 26H197.226L194.554 18.992H195.002L192.298 26H190.826ZM203.437 29.104H201.981C202.631 27.9733 203.106 26.7947 203.405 25.568C203.703 24.3307 203.853 23.0133 203.853 21.616C203.853 20.2187 203.703 18.9067 203.405 17.68C203.106 16.4427 202.631 15.2587 201.981 14.128H203.437C204.066 15.0773 204.541 16.1973 204.861 17.488C205.191 18.768 205.357 20.144 205.357 21.616C205.357 23.088 205.191 24.464 204.861 25.744C204.541 27.0133 204.066 28.1333 203.437 29.104Z" fill="#5E531D"/>
</svg>
