<!--
  - Unitto is a calculator for Android
  - Copyright (c) 2023-2024 Elshan Agaev
  -
  - This program is free software: you can redistribute it and/or modify
  - it under the terms of the GNU General Public License as published by
  - the Free Software Foundation, either version 3 of the License, or
  - (at your option) any later version.
  -
  - This program is distributed in the hope that it will be useful,
  - but WITHOUT ANY WARRANTY; without even the implied warranty of
  - MERCHANTABILITY or FITNESS FOR A PARTICULAR PURPOSE.  See the
  - GNU General Public License for more details.
  -
  - You should have received a copy of the GNU General Public License
  - along with this program.  If not, see <https://www.gnu.org/licenses/>.
  -->

<svg width="142" height="40" viewBox="0 0 142 40" fill="none" xmlns="http://www.w3.org/2000/svg">
<rect width="142" height="40" rx="20" fill="#005226"/>
<mask id="mask0_1538_125" style="mask-type:alpha" maskUnits="userSpaceOnUse" x="16" y="8" width="24" height="24">
<rect x="16" y="8" width="24" height="24" fill="#D9D9D9"/>
</mask>
<g mask="url(#mask0_1538_125)">
<path d="M27.9 30L32.45 18H34.55L39.1 30H37L35.95 26.95H31.1L30 30H27.9ZM31.7 25.2H35.3L33.55 20.25H33.45L31.7 25.2ZM20 27L18.6 25.6L23.65 20.55C23.0167 19.85 22.4625 19.125 21.9875 18.375C21.5125 17.625 21.1 16.8333 20.75 16H22.85C23.15 16.6 23.4708 17.1417 23.8125 17.625C24.1542 18.1083 24.5667 18.6167 25.05 19.15C25.7833 18.35 26.3917 17.5292 26.875 16.6875C27.3583 15.8458 27.7667 14.95 28.1 14H17V12H24V10H26V12H33V14H30.1C29.75 15.1833 29.275 16.3333 28.675 17.45C28.075 18.5667 27.3333 19.6167 26.45 20.6L28.85 23.05L28.1 25.1L25 22L20 27Z" fill="#7EFBA0"/>
</g>
<path d="M51.904 26V16.192H48.064V14.8H57.328V16.192H53.488V26H51.904ZM58.1435 26V17.52H59.6155V19.824L59.4715 19.248C59.7062 18.6613 60.1008 18.2133 60.6555 17.904C61.2102 17.5947 61.8928 17.44 62.7035 17.44V18.928C62.6395 18.9173 62.5755 18.912 62.5115 18.912C62.4582 18.912 62.4048 18.912 62.3515 18.912C61.5302 18.912 60.8795 19.1573 60.3995 19.648C59.9195 20.1387 59.6795 20.848 59.6795 21.776V26H58.1435ZM68.7356 26V24.208L68.6556 23.872V20.816C68.6556 20.1653 68.4636 19.664 68.0796 19.312C67.7063 18.9493 67.141 18.768 66.3836 18.768C65.8823 18.768 65.3916 18.8533 64.9116 19.024C64.4316 19.184 64.0263 19.4027 63.6956 19.68L63.0556 18.528C63.493 18.176 64.0156 17.9093 64.6236 17.728C65.2423 17.536 65.8876 17.44 66.5596 17.44C67.7223 17.44 68.6183 17.7227 69.2476 18.288C69.877 18.8533 70.1916 19.7173 70.1916 20.88V26H68.7356ZM65.9516 26.096C65.3223 26.096 64.7676 25.9893 64.2876 25.776C63.8183 25.5627 63.4556 25.2693 63.1996 24.896C62.9436 24.512 62.8156 24.08 62.8156 23.6C62.8156 23.1413 62.9223 22.7253 63.1356 22.352C63.3596 21.9787 63.717 21.68 64.2076 21.456C64.709 21.232 65.381 21.12 66.2236 21.12H68.9116V22.224H66.2876C65.5196 22.224 65.0023 22.352 64.7356 22.608C64.469 22.864 64.3356 23.1733 64.3356 23.536C64.3356 23.952 64.501 24.288 64.8316 24.544C65.1623 24.7893 65.621 24.912 66.2076 24.912C66.7836 24.912 67.285 24.784 67.7116 24.528C68.149 24.272 68.4636 23.8987 68.6556 23.408L68.9596 24.464C68.757 24.9653 68.3996 25.3653 67.8876 25.664C67.3756 25.952 66.7303 26.096 65.9516 26.096ZM77.0621 17.44C77.7555 17.44 78.3635 17.5733 78.8861 17.84C79.4195 18.1067 79.8355 18.512 80.1341 19.056C80.4328 19.6 80.5821 20.288 80.5821 21.12V26H79.0461V21.296C79.0461 20.4747 78.8435 19.856 78.4381 19.44C78.0435 19.024 77.4835 18.816 76.7581 18.816C76.2141 18.816 75.7395 18.9227 75.3341 19.136C74.9288 19.3493 74.6141 19.664 74.3901 20.08C74.1768 20.496 74.0701 21.0133 74.0701 21.632V26H72.5341V17.52H74.0061V19.808L73.7661 19.2C74.0435 18.6453 74.4701 18.2133 75.0461 17.904C75.6221 17.5947 76.2941 17.44 77.0621 17.44ZM85.3568 26.096C84.6528 26.096 83.9808 26 83.3408 25.808C82.7114 25.616 82.2154 25.3813 81.8528 25.104L82.4928 23.888C82.8554 24.1333 83.3034 24.3413 83.8368 24.512C84.3701 24.6827 84.9141 24.768 85.4688 24.768C86.1834 24.768 86.6954 24.6667 87.0048 24.464C87.3248 24.2613 87.4848 23.9787 87.4848 23.616C87.4848 23.3493 87.3888 23.1413 87.1968 22.992C87.0048 22.8427 86.7488 22.7307 86.4288 22.656C86.1194 22.5813 85.7728 22.5173 85.3888 22.464C85.0048 22.4 84.6208 22.3253 84.2368 22.24C83.8528 22.144 83.5008 22.016 83.1808 21.856C82.8608 21.6853 82.6048 21.456 82.4128 21.168C82.2208 20.8693 82.1248 20.4747 82.1248 19.984C82.1248 19.472 82.2688 19.024 82.5568 18.64C82.8448 18.256 83.2501 17.9627 83.7728 17.76C84.3061 17.5467 84.9354 17.44 85.6608 17.44C86.2154 17.44 86.7754 17.5093 87.3408 17.648C87.9168 17.776 88.3861 17.9627 88.7488 18.208L88.0928 19.424C87.7088 19.168 87.3088 18.992 86.8928 18.896C86.4768 18.8 86.0608 18.752 85.6448 18.752C84.9728 18.752 84.4714 18.864 84.1408 19.088C83.8101 19.3013 83.6448 19.5787 83.6448 19.92C83.6448 20.208 83.7408 20.432 83.9328 20.592C84.1354 20.7413 84.3914 20.8587 84.7008 20.944C85.0208 21.0293 85.3728 21.104 85.7568 21.168C86.1408 21.2213 86.5248 21.296 86.9088 21.392C87.2928 21.4773 87.6394 21.6 87.9488 21.76C88.2688 21.92 88.5248 22.144 88.7168 22.432C88.9194 22.72 89.0208 23.104 89.0208 23.584C89.0208 24.096 88.8714 24.5387 88.5728 24.912C88.2741 25.2853 87.8528 25.5787 87.3088 25.792C86.7648 25.9947 86.1141 26.096 85.3568 26.096ZM90.4404 26V14.128H91.9764V26H90.4404ZM99.6731 26V24.208L99.5931 23.872V20.816C99.5931 20.1653 99.4011 19.664 99.0171 19.312C98.6438 18.9493 98.0785 18.768 97.3211 18.768C96.8198 18.768 96.3291 18.8533 95.8491 19.024C95.3691 19.184 94.9638 19.4027 94.6331 19.68L93.9931 18.528C94.4305 18.176 94.9531 17.9093 95.5611 17.728C96.1798 17.536 96.8251 17.44 97.4971 17.44C98.6598 17.44 99.5558 17.7227 100.185 18.288C100.814 18.8533 101.129 19.7173 101.129 20.88V26H99.6731ZM96.8891 26.096C96.2598 26.096 95.7051 25.9893 95.2251 25.776C94.7558 25.5627 94.3931 25.2693 94.1371 24.896C93.8811 24.512 93.7531 24.08 93.7531 23.6C93.7531 23.1413 93.8598 22.7253 94.0731 22.352C94.2971 21.9787 94.6545 21.68 95.1451 21.456C95.6465 21.232 96.3185 21.12 97.1611 21.12H99.8491V22.224H97.2251C96.4571 22.224 95.9398 22.352 95.6731 22.608C95.4065 22.864 95.2731 23.1733 95.2731 23.536C95.2731 23.952 95.4385 24.288 95.7691 24.544C96.0998 24.7893 96.5585 24.912 97.1451 24.912C97.7211 24.912 98.2225 24.784 98.6491 24.528C99.0865 24.272 99.4011 23.8987 99.5931 23.408L99.8971 24.464C99.6945 24.9653 99.3371 25.3653 98.8251 25.664C98.3131 25.952 97.6678 26.096 96.8891 26.096ZM106.384 26.096C105.53 26.096 104.869 25.8667 104.4 25.408C103.93 24.9493 103.696 24.2933 103.696 23.44V15.664H105.232V23.376C105.232 23.8347 105.344 24.1867 105.568 24.432C105.802 24.6773 106.133 24.8 106.56 24.8C107.04 24.8 107.44 24.6667 107.76 24.4L108.24 25.504C108.005 25.7067 107.722 25.856 107.392 25.952C107.072 26.048 106.736 26.096 106.384 26.096ZM102.256 18.784V17.52H107.664V18.784H102.256ZM113.091 26.096C112.185 26.096 111.385 25.9093 110.691 25.536C110.009 25.1627 109.475 24.6507 109.091 24C108.718 23.3493 108.531 22.6027 108.531 21.76C108.531 20.9173 108.713 20.1707 109.075 19.52C109.449 18.8693 109.955 18.3627 110.595 18C111.246 17.6267 111.977 17.44 112.787 17.44C113.609 17.44 114.334 17.6213 114.963 17.984C115.593 18.3467 116.083 18.8587 116.435 19.52C116.798 20.1707 116.979 20.9333 116.979 21.808C116.979 21.872 116.974 21.9467 116.963 22.032C116.963 22.1173 116.958 22.1973 116.947 22.272H109.731V21.168H116.147L115.523 21.552C115.534 21.008 115.422 20.5227 115.187 20.096C114.953 19.6693 114.627 19.3387 114.211 19.104C113.806 18.8587 113.331 18.736 112.787 18.736C112.254 18.736 111.779 18.8587 111.363 19.104C110.947 19.3387 110.622 19.6747 110.387 20.112C110.153 20.5387 110.035 21.0293 110.035 21.584V21.84C110.035 22.4053 110.163 22.912 110.419 23.36C110.686 23.7973 111.054 24.1387 111.523 24.384C111.993 24.6293 112.531 24.752 113.139 24.752C113.641 24.752 114.094 24.6667 114.499 24.496C114.915 24.3253 115.278 24.0693 115.587 23.728L116.435 24.72C116.051 25.168 115.571 25.5093 114.995 25.744C114.43 25.9787 113.795 26.096 113.091 26.096Z" fill="#7EFBA0"/>
</svg>
