<svg width="143" height="40" viewBox="0 0 143 40" fill="none" xmlns="http://www.w3.org/2000/svg">
<rect width="143" height="40" rx="20" fill="#465830"/>
<path d="M24 27V13L35 20L24 27ZM26 23.35L31.25 20L26 16.65V23.35Z" fill="#D5EBB6"/>
<path d="M52.256 26L48.512 14.8H50.16L53.6 25.136H52.768L56.336 14.8H57.808L61.296 25.136H60.496L63.984 14.8H65.504L61.76 26H60.08L56.816 16.416H57.248L53.968 26H52.256ZM69.8726 26.096C68.966 26.096 68.166 25.9093 67.4726 25.536C66.79 25.1627 66.2566 24.6507 65.8726 24C65.4993 23.3493 65.3126 22.6027 65.3126 21.76C65.3126 20.9173 65.494 20.1707 65.8566 19.52C66.23 18.8693 66.7366 18.3627 67.3766 18C68.0273 17.6267 68.758 17.44 69.5686 17.44C70.39 17.44 71.1153 17.6213 71.7446 17.984C72.374 18.3467 72.8646 18.8587 73.2166 19.52C73.5793 20.1707 73.7606 20.9333 73.7606 21.808C73.7606 21.872 73.7553 21.9467 73.7446 22.032C73.7446 22.1173 73.7393 22.1973 73.7286 22.272H66.5126V21.168H72.9286L72.3046 21.552C72.3153 21.008 72.2033 20.5227 71.9686 20.096C71.734 19.6693 71.4086 19.3387 70.9926 19.104C70.5873 18.8587 70.1126 18.736 69.5686 18.736C69.0353 18.736 68.5606 18.8587 68.1446 19.104C67.7286 19.3387 67.4033 19.6747 67.1686 20.112C66.934 20.5387 66.8166 21.0293 66.8166 21.584V21.84C66.8166 22.4053 66.9446 22.912 67.2006 23.36C67.4673 23.7973 67.8353 24.1387 68.3046 24.384C68.774 24.6293 69.3126 24.752 69.9206 24.752C70.422 24.752 70.8753 24.6667 71.2806 24.496C71.6966 24.3253 72.0593 24.0693 72.3686 23.728L73.2166 24.72C72.8326 25.168 72.3526 25.5093 71.7766 25.744C71.2113 25.9787 70.5766 26.096 69.8726 26.096ZM79.8895 26.096C79.1642 26.096 78.5082 25.936 77.9215 25.616C77.3455 25.2853 76.8868 24.8 76.5455 24.16C76.2148 23.52 76.0495 22.72 76.0495 21.76C76.0495 20.8 76.2202 20 76.5615 19.36C76.9135 18.72 77.3775 18.24 77.9535 17.92C78.5402 17.6 79.1855 17.44 79.8895 17.44C80.7215 17.44 81.4575 17.6213 82.0975 17.984C82.7375 18.3467 83.2442 18.8533 83.6175 19.504C83.9908 20.144 84.1775 20.896 84.1775 21.76C84.1775 22.624 83.9908 23.3813 83.6175 24.032C83.2442 24.6827 82.7375 25.1893 82.0975 25.552C81.4575 25.9147 80.7215 26.096 79.8895 26.096ZM75.3935 26V14.128H76.9295V19.776L76.7695 21.744L76.8655 23.712V26H75.3935ZM79.7615 24.752C80.3055 24.752 80.7908 24.6293 81.2175 24.384C81.6548 24.1387 81.9962 23.792 82.2415 23.344C82.4975 22.8853 82.6255 22.3573 82.6255 21.76C82.6255 21.152 82.4975 20.6293 82.2415 20.192C81.9962 19.744 81.6548 19.3973 81.2175 19.152C80.7908 18.9067 80.3055 18.784 79.7615 18.784C79.2282 18.784 78.7428 18.9067 78.3055 19.152C77.8788 19.3973 77.5375 19.744 77.2815 20.192C77.0362 20.6293 76.9135 21.152 76.9135 21.76C76.9135 22.3573 77.0362 22.8853 77.2815 23.344C77.5375 23.792 77.8788 24.1387 78.3055 24.384C78.7428 24.6293 79.2282 24.752 79.7615 24.752ZM94.8606 26V24.208L94.7806 23.872V20.816C94.7806 20.1653 94.5886 19.664 94.2046 19.312C93.8313 18.9493 93.266 18.768 92.5086 18.768C92.0073 18.768 91.5166 18.8533 91.0366 19.024C90.5566 19.184 90.1513 19.4027 89.8206 19.68L89.1806 18.528C89.618 18.176 90.1406 17.9093 90.7486 17.728C91.3673 17.536 92.0126 17.44 92.6846 17.44C93.8473 17.44 94.7433 17.7227 95.3726 18.288C96.002 18.8533 96.3166 19.7173 96.3166 20.88V26H94.8606ZM92.0766 26.096C91.4473 26.096 90.8926 25.9893 90.4126 25.776C89.9433 25.5627 89.5806 25.2693 89.3246 24.896C89.0686 24.512 88.9406 24.08 88.9406 23.6C88.9406 23.1413 89.0473 22.7253 89.2606 22.352C89.4846 21.9787 89.842 21.68 90.3326 21.456C90.834 21.232 91.506 21.12 92.3486 21.12H95.0366V22.224H92.4126C91.6446 22.224 91.1273 22.352 90.8606 22.608C90.594 22.864 90.4606 23.1733 90.4606 23.536C90.4606 23.952 90.626 24.288 90.9566 24.544C91.2873 24.7893 91.746 24.912 92.3326 24.912C92.9086 24.912 93.41 24.784 93.8366 24.528C94.274 24.272 94.5886 23.8987 94.7806 23.408L95.0846 24.464C94.882 24.9653 94.5246 25.3653 94.0126 25.664C93.5006 25.952 92.8553 26.096 92.0766 26.096ZM103.155 26.096C102.451 26.096 101.806 25.936 101.219 25.616C100.643 25.2853 100.179 24.8 99.8271 24.16C99.4858 23.52 99.3151 22.72 99.3151 21.76C99.3151 20.8 99.4805 20 99.8111 19.36C100.152 18.72 100.611 18.24 101.187 17.92C101.774 17.6 102.43 17.44 103.155 17.44C103.987 17.44 104.723 17.6213 105.363 17.984C106.003 18.3467 106.51 18.8533 106.883 19.504C107.256 20.144 107.443 20.896 107.443 21.76C107.443 22.624 107.256 23.3813 106.883 24.032C106.51 24.6827 106.003 25.1893 105.363 25.552C104.723 25.9147 103.987 26.096 103.155 26.096ZM98.6591 29.104V17.52H100.131V19.808L100.035 21.776L100.195 23.744V29.104H98.6591ZM103.027 24.752C103.571 24.752 104.056 24.6293 104.483 24.384C104.92 24.1387 105.262 23.792 105.507 23.344C105.763 22.8853 105.891 22.3573 105.891 21.76C105.891 21.152 105.763 20.6293 105.507 20.192C105.262 19.744 104.92 19.3973 104.483 19.152C104.056 18.9067 103.571 18.784 103.027 18.784C102.494 18.784 102.008 18.9067 101.571 19.152C101.144 19.3973 100.803 19.744 100.547 20.192C100.302 20.6293 100.179 21.152 100.179 21.76C100.179 22.3573 100.302 22.8853 100.547 23.344C100.803 23.792 101.144 24.1387 101.571 24.384C102.008 24.6293 102.494 24.752 103.027 24.752ZM113.561 26.096C112.857 26.096 112.212 25.936 111.625 25.616C111.049 25.2853 110.585 24.8 110.233 24.16C109.892 23.52 109.721 22.72 109.721 21.76C109.721 20.8 109.887 20 110.217 19.36C110.559 18.72 111.017 18.24 111.593 17.92C112.18 17.6 112.836 17.44 113.561 17.44C114.393 17.44 115.129 17.6213 115.769 17.984C116.409 18.3467 116.916 18.8533 117.289 19.504C117.663 20.144 117.849 20.896 117.849 21.76C117.849 22.624 117.663 23.3813 117.289 24.032C116.916 24.6827 116.409 25.1893 115.769 25.552C115.129 25.9147 114.393 26.096 113.561 26.096ZM109.065 29.104V17.52H110.537V19.808L110.441 21.776L110.601 23.744V29.104H109.065ZM113.433 24.752C113.977 24.752 114.463 24.6293 114.889 24.384C115.327 24.1387 115.668 23.792 115.913 23.344C116.169 22.8853 116.297 22.3573 116.297 21.76C116.297 21.152 116.169 20.6293 115.913 20.192C115.668 19.744 115.327 19.3973 114.889 19.152C114.463 18.9067 113.977 18.784 113.433 18.784C112.9 18.784 112.415 18.9067 111.977 19.152C111.551 19.3973 111.209 19.744 110.953 20.192C110.708 20.6293 110.585 21.152 110.585 21.76C110.585 22.3573 110.708 22.8853 110.953 23.344C111.209 23.792 111.551 24.1387 111.977 24.384C112.415 24.6293 112.9 24.752 113.433 24.752Z" fill="#D5EBB6"/>
</svg>
